<?xml version="1.0" standalone="no"?>
<!DOCTYPE svg PUBLIC "-//W3C//DTD SVG 20010904//EN"
 "http://www.w3.org/TR/2001/REC-SVG-20010904/DTD/svg10.dtd">
<svg version="1.0" xmlns="http://www.w3.org/2000/svg"
 width="1200.000000pt" height="928.000000pt" viewBox="0 0 1200.000000 928.000000"
 preserveAspectRatio="xMidYMid meet">
<metadata>
Created by potrace 1.16, written by Peter Selinger 2001-2019
</metadata>
<g transform="translate(0.000000,928.000000) scale(0.100000,-0.100000)"
fill="#000000" stroke="none">
<path d="M5040 8921 c0 -15 -3 -56 -6 -90 -6 -57 -5 -61 13 -61 11 0 26 -7 33
-15 7 -8 23 -15 35 -15 12 0 28 -7 35 -15 7 -8 20 -15 30 -15 10 0 23 -7 30
-15 7 -8 23 -15 35 -15 12 0 28 -7 35 -15 7 -8 21 -15 31 -15 10 0 21 -6 25
-12 11 -18 22 25 23 94 l1 56 -156 81 c-86 45 -158 81 -160 81 -2 0 -4 -13 -4
-29z"/>
<path d="M7900 8888 c114 -51 401 -200 518 -270 78 -47 142 -85 142 -83 0 6
-272 250 -340 304 l-75 60 -135 0 c-107 0 -130 -3 -110 -11z"/>
<path d="M3800 7270 l0 -310 54 0 c49 0 55 2 58 23 3 19 10 22 58 25 35 2 58
9 63 18 10 18 27 18 27 -1 0 -8 5 -15 10 -15 6 0 10 9 10 20 0 11 -4 20 -10
20 -5 0 -10 8 -10 17 0 13 -3 14 -11 6 -9 -9 -18 -5 -36 13 -20 20 -22 28 -13
39 7 8 9 15 4 15 -4 0 -3 5 3 11 13 13 8 57 -11 102 -12 29 -26 36 -26 13 0
-8 -6 -17 -12 -20 -10 -5 -10 -7 0 -12 6 -3 12 -12 12 -20 0 -8 5 -14 10 -14
6 0 10 -7 10 -16 0 -8 -4 -12 -10 -9 -16 10 -12 -5 7 -23 16 -16 15 -17 -2
-21 -10 -2 -25 -9 -33 -17 -18 -18 -28 -18 -36 2 -6 16 -46 16 -58 0 -3 -5 -5
2 -5 16 2 21 7 25 30 24 31 -2 31 -2 15 24 -11 17 -10 22 2 30 12 8 11 10 -7
10 -22 0 -33 25 -13 32 5 2 6 26 1 61 -8 58 -8 58 17 52 13 -3 31 0 40 7 12
10 14 10 8 1 -4 -7 -2 -13 3 -13 6 0 11 7 11 16 0 12 7 15 25 12 20 -4 28 1
39 23 8 17 10 31 5 35 -5 3 -9 1 -9 -5 0 -12 -107 -67 -116 -59 -3 4 1 21 10
38 13 27 13 31 1 26 -33 -12 -12 15 22 29 20 9 43 21 51 28 12 10 11 13 -9 18
-18 4 -12 7 24 10 27 2 51 1 53 -3 3 -5 -4 -8 -15 -8 -12 0 -29 -8 -40 -19
-10 -10 -26 -23 -35 -28 -10 -5 -18 -17 -20 -25 -1 -9 -8 -24 -16 -34 -14 -16
-13 -17 3 -11 10 4 23 7 28 7 5 0 8 5 7 11 -2 6 21 23 49 37 33 17 55 36 59
50 3 12 10 22 14 22 5 0 6 -9 3 -20 -5 -19 5 -26 32 -20 5 1 15 -7 22 -16 11
-15 13 -11 13 34 l0 52 34 0 c19 0 38 -4 41 -10 3 -5 21 -10 38 -10 33 -1 60
-16 65 -38 1 -6 -2 -12 -8 -12 -5 0 -10 -11 -10 -25 0 -14 5 -25 11 -25 5 0 8
4 5 9 -3 5 1 14 9 21 8 7 15 21 15 31 0 11 7 19 15 19 8 0 15 8 15 18 0 10 5
23 11 29 9 9 -66 12 -295 12 l-306 1 0 -310z"/>
<path d="M4510 7424 c0 -8 -5 -12 -11 -8 -8 4 -9 -1 -4 -16 6 -18 4 -22 -8
-17 -13 5 -14 -10 -11 -116 2 -67 6 -143 9 -169 l6 -48 -33 0 c-22 0 -39 -7
-48 -20 -8 -11 -20 -20 -27 -20 -8 0 -13 -13 -13 -35 0 -28 4 -35 20 -35 11 0
20 5 20 10 0 14 27 12 34 -2 5 -10 7 -10 12 0 3 6 21 12 40 12 l34 0 0 240 c0
153 -4 240 -10 240 -5 0 -10 -7 -10 -16z"/>
<path d="M5510 7376 c0 -30 -2 -33 -25 -28 -37 7 -65 -23 -65 -68 0 -48 23
-68 78 -68 l42 1 0 98 c0 81 -3 99 -15 99 -10 0 -15 -10 -15 -34z"/>
<path d="M5900 7306 c0 -79 3 -96 15 -96 12 0 15 14 16 68 l0 67 26 -67 c14
-38 31 -68 38 -68 7 0 24 30 37 68 l23 67 3 -67 c2 -52 6 -68 17 -68 12 0 15
19 15 95 0 93 -1 95 -23 95 -20 0 -27 -10 -46 -70 -13 -39 -25 -69 -27 -67 -2
2 -14 32 -28 68 -18 48 -29 65 -45 67 -20 3 -21 -1 -21 -92z"/>
<path d="M8137 7385 c-35 -34 -32 -146 3 -165 28 -15 55 -12 73 8 25 27 23
133 -1 155 -23 21 -56 22 -75 2z"/>
<path d="M8287 7385 c-33 -32 -33 -128 -1 -160 21 -20 57 -19 77 3 25 27 23
133 -1 155 -23 21 -56 22 -75 2z"/>
<path d="M3006 6985 c-203 -69 -371 -126 -373 -129 -2 -2 13 -7 34 -11 21 -3
128 -29 238 -56 194 -48 461 -109 477 -109 4 0 8 97 8 215 0 118 -3 215 -7
215 -5 0 -174 -57 -377 -125z"/>
<path d="M5343 6393 c488 -2 1286 -2 1775 0 488 1 88 2 -888 2 -976 0 -1376
-1 -887 -2z"/>
<path d="M8684 5853 c-5 -21 -9 -263 -9 -538 0 -452 -2 -503 -17 -531 -21 -38
-72 -64 -126 -64 -26 0 -42 -5 -46 -15 -3 -9 -20 -16 -43 -17 -21 -1 23 -5 97
-9 l135 -7 31 35 c17 19 39 58 49 85 10 27 28 60 41 73 28 28 29 32 9 51 -8 9
-15 22 -15 30 0 12 31 14 185 14 l185 0 0 58 c0 43 -3 53 -11 42 -8 -12 -9
-10 -5 10 16 64 19 113 8 106 -7 -4 -12 -4 -13 1 -1 9 -6 59 -8 86 0 9 -7 17
-13 17 -24 0 -38 53 -38 147 0 81 -2 92 -16 86 -13 -5 -15 -2 -9 15 4 15 2 22
-7 22 -10 0 -10 2 1 9 9 6 12 19 7 40 -3 17 -9 45 -12 62 -4 20 -9 27 -14 19
-6 -9 -10 -6 -15 9 -6 19 -13 21 -103 21 -106 0 -142 6 -142 24 0 10 -20 50
-62 129 l-16 28 -8 -38z"/>
<path d="M10350 5601 c-102 -71 -246 -171 -320 -222 -74 -51 -136 -97 -138
-101 -2 -4 -8 -8 -13 -8 -5 0 -47 -26 -92 -57 -81 -58 -192 -134 -404 -279
-62 -42 -113 -81 -113 -86 0 -6 17 -8 43 -4 23 3 136 8 250 12 114 3 213 7
220 9 7 2 57 6 112 9 55 4 178 11 272 16 l173 10 135 59 c74 33 144 62 157 66
13 4 326 138 697 298 588 254 671 293 645 299 -40 10 -600 54 -1069 83 -137 8
-277 17 -310 20 l-60 5 -185 -129z"/>
<path d="M7916 5698 c-10 -14 -16 -44 -16 -80 0 -47 4 -59 22 -72 55 -38 98
-3 98 79 0 42 -5 60 -20 75 -27 27 -65 26 -84 -2z"/>
<path d="M8136 5705 c-34 -35 -32 -146 4 -165 27 -15 56 -12 74 6 24 23 22
135 -2 157 -23 21 -56 22 -76 2z"/>
<path d="M8294 5712 c-48 -32 -44 -161 6 -177 41 -13 69 2 80 44 12 45 0 119
-22 132 -16 11 -49 11 -64 1z"/>
<path d="M4008 5318 c-16 -5 -28 -17 -28 -26 0 -12 -3 -13 -12 -4 -21 21 -28
13 -28 -31 0 -31 5 -46 20 -57 11 -8 20 -20 20 -27 0 -10 23 -13 85 -13 79 0
85 1 85 21 0 22 -22 49 -39 49 -6 0 -11 11 -11 25 0 14 -4 25 -10 25 -5 0 -10
11 -10 25 0 28 -22 32 -72 13z"/>
<path d="M4160 4710 c0 -6 56 -10 149 -10 110 0 151 -3 155 -12 5 -10 7 -10
12 0 7 15 144 17 144 2 0 -7 515 -10 1526 -10 1309 0 1527 2 1540 14 8 8 14
17 14 20 0 3 -796 6 -1770 6 -1173 0 -1770 -3 -1770 -10z"/>
<path d="M4080 4095 c0 -22 4 -25 35 -25 24 0 35 -5 35 -15 0 -8 5 -15 10 -15
19 0 10 -39 -10 -45 -11 -3 -20 -11 -20 -16 0 -5 9 -9 20 -9 16 0 20 -7 20
-34 0 -22 6 -36 17 -40 20 -8 44 11 27 22 -6 4 -14 17 -18 30 -6 16 -3 22 8
22 12 0 16 11 16 50 0 47 2 50 25 50 20 0 25 5 25 25 0 25 0 25 -95 25 -95 0
-95 0 -95 -25z"/>
<path d="M4810 3926 c0 -77 3 -96 15 -96 10 0 15 16 17 63 l3 62 24 -62 c13
-35 29 -63 35 -63 7 0 23 30 37 68 l24 67 3 -67 c2 -52 6 -68 17 -68 12 0 15
19 15 96 0 93 -1 95 -22 92 -18 -2 -28 -17 -47 -71 -13 -37 -26 -66 -28 -63
-2 2 -14 32 -27 67 -17 49 -28 65 -44 67 -21 3 -22 0 -22 -92z"/>
<path d="M7916 3998 c-24 -34 -21 -123 4 -148 47 -47 100 -9 100 73 0 65 -20
97 -60 97 -18 0 -34 -8 -44 -22z"/>
<path d="M8136 4005 c-37 -38 -32 -148 9 -167 32 -14 72 -3 80 23 13 41 7 120
-11 140 -21 23 -57 25 -78 4z"/>
<path d="M8288 4010 c-19 -12 -34 -86 -24 -124 13 -53 67 -74 99 -38 25 27 23
133 -1 155 -21 19 -49 21 -74 7z"/>
<path d="M4270 3924 c0 -59 -17 -76 -73 -73 -23 2 -45 8 -49 14 -5 7 -14 6
-28 -2 -11 -7 -36 -13 -55 -13 l-35 0 0 -65 c0 -36 -4 -65 -9 -65 -5 0 -11
-20 -13 -45 -3 -39 0 -45 19 -50 14 -3 23 -13 23 -25 0 -11 5 -20 10 -20 6 0
10 5 10 10 0 6 18 10 40 10 36 0 40 -2 40 -25 0 -20 -5 -25 -25 -25 -14 0 -25
-4 -25 -10 0 -5 5 -10 10 -10 6 0 10 -7 10 -15 0 -12 13 -15 60 -15 57 0 60 1
60 24 0 15 -7 26 -20 29 -12 3 -20 14 -20 27 0 20 5 21 54 19 72 -3 86 11 86
90 0 34 -4 61 -10 61 -5 0 -10 21 -10 46 0 27 -6 51 -15 60 -9 10 -15 34 -15
65 0 27 -4 49 -10 49 -5 0 -10 -21 -10 -46z"/>
<path d="M5175 3947 c-34 -49 -5 -122 47 -115 18 3 27 1 25 -6 -2 -6 -17 -12
-33 -12 -45 -2 -47 -3 -34 -19 16 -19 50 -19 78 1 20 13 22 24 22 93 l0 78
-45 1 c-35 1 -48 -3 -60 -21z"/>
<path d="M5325 3953 c-20 -20 -19 -87 2 -108 11 -12 25 -15 46 -11 26 5 28 4
16 -10 -8 -10 -22 -14 -41 -10 -15 3 -30 1 -33 -4 -7 -12 27 -30 59 -30 39 0
56 34 56 116 l0 71 -45 1 c-28 0 -51 -6 -60 -15z"/>
<path d="M6390 3874 c0 -77 3 -94 15 -94 10 0 15 10 15 30 0 28 2 30 25 24 37
-9 65 19 65 66 0 48 -23 68 -77 68 l-43 -1 0 -93z"/>
<path d="M4290 3535 c0 -8 -4 -15 -10 -15 -5 0 -10 -13 -10 -30 0 -16 -4 -30
-10 -30 -14 0 -13 -26 2 -50 16 -25 4 -37 -18 -19 -13 11 -18 11 -21 2 -6 -16
-103 -18 -103 -3 0 14 -33 12 -49 -2 -11 -10 -14 -10 -18 0 -9 25 -20 11 -31
-40 -13 -59 -13 -88 0 -88 4 0 8 -7 8 -15 0 -9 9 -15 24 -15 13 0 26 -5 28
-12 5 -14 201 -12 206 2 2 6 15 10 28 10 23 0 24 2 24 83 0 77 -2 85 -22 95
-13 6 -17 11 -10 11 18 1 15 28 -5 36 -17 6 -17 7 0 19 18 14 21 33 11 60 -8
20 -24 21 -24 1z"/>
<path d="M4313 3007 c152 -8 177 -12 178 -26 0 -12 2 -11 9 4 6 14 9 -3 9 -52
l1 -73 73 1 c54 1 65 3 42 9 -24 6 -26 8 -7 9 12 0 22 5 22 11 0 25 45 109 64
118 15 8 -67 10 -274 10 l-295 -1 178 -10z"/>
<path d="M6741 3005 c19 -19 159 -22 699 -13 223 3 476 6 563 7 97 1 157 5
157 11 0 7 -246 10 -717 10 -633 0 -716 -2 -702 -15z"/>
<path d="M3981 2661 c-15 -13 -21 -30 -21 -59 l0 -41 55 -6 c31 -4 128 -6 216
-3 180 4 179 4 179 78 l0 45 -204 2 c-184 1 -207 0 -225 -16z"/>
<path d="M4010 2416 c0 -31 5 -46 16 -50 28 -11 54 -6 54 9 0 26 14 16 43 -30
16 -28 27 -61 27 -83 1 -28 7 -42 25 -55 25 -18 25 -18 25 8 0 25 15 35 22 13
3 -8 12 -8 36 3 36 15 39 24 18 45 -22 21 -36 17 -36 -11 0 -28 -20 -35 -20
-7 -1 16 -1 16 -14 0 -24 -32 -36 -21 -36 32 0 28 -4 50 -10 50 -5 0 -10 11
-10 25 0 19 -5 25 -21 25 -26 0 -49 23 -49 49 0 17 -6 21 -35 21 -35 0 -35 0
-35 -44z"/>
<path d="M4810 2225 l0 -95 43 0 c71 0 104 39 77 90 -8 14 -7 26 2 40 11 19
10 24 -11 41 -15 12 -39 19 -67 19 l-44 0 0 -95z"/>
<path d="M8143 2312 c-16 -10 -33 -57 -33 -93 0 -74 62 -117 103 -71 25 27 23
133 -1 155 -20 18 -49 22 -69 9z"/>
<path d="M8287 2305 c-35 -34 -32 -146 3 -165 28 -15 55 -12 73 8 25 27 23
133 -1 155 -23 21 -56 22 -75 2z"/>
<path d="M4150 2110 c0 -5 -11 -10 -25 -10 -14 0 -25 -5 -25 -11 0 -5 -4 -7
-10 -4 -6 4 -10 -7 -10 -24 0 -21 -5 -31 -15 -31 -9 0 -15 -9 -15 -25 0 -14 7
-28 15 -31 8 -4 15 -15 15 -25 0 -16 8 -19 45 -19 41 0 45 -2 45 -25 0 -23 -4
-25 -44 -25 -25 0 -48 -4 -51 -10 -4 -6 13 -10 44 -10 28 0 51 -4 51 -10 0 -5
7 -10 15 -10 8 0 15 5 15 10 0 6 23 10 50 10 28 0 50 5 50 10 0 6 -25 10 -56
10 -47 0 -55 3 -50 16 3 9 6 20 6 25 0 5 23 9 51 9 31 0 48 4 44 10 -3 6 -3
10 2 10 12 0 8 59 -6 73 -9 9 -14 9 -22 -3 -8 -11 -12 -12 -16 -2 -2 7 -12 19
-21 28 -12 12 -12 18 -3 24 7 4 11 18 9 31 -4 23 -5 23 -13 4 -18 -41 -55 -48
-55 -10 0 14 -4 25 -10 25 -5 0 -10 -4 -10 -10z"/>
<path d="M4053 1770 c-3 -11 -11 -19 -18 -16 -14 5 -9 -31 6 -40 5 -3 9 -13 9
-23 0 -19 -26 -31 -67 -31 -21 0 -23 -5 -23 -55 0 -30 5 -55 10 -55 6 0 10 -7
10 -15 0 -10 11 -15 35 -15 19 0 35 -4 35 -10 0 -6 55 -10 145 -10 90 0 145 4
145 10 0 6 10 10 21 10 24 0 48 26 49 51 0 9 7 19 15 23 19 7 20 46 1 46 -8 0
-16 4 -18 10 -2 8 -32 15 -80 19 -12 1 -9 31 2 31 15 0 12 77 -2 82 -7 2 -60
3 -118 3 -121 0 -155 -18 -42 -23 39 -2 72 -7 72 -12 0 -6 -4 -10 -10 -10 -5
0 -10 -7 -10 -15 0 -9 -9 -15 -25 -15 -17 0 -25 5 -25 18 0 14 -9 17 -47 17
-39 0 -47 3 -45 17 4 25 -18 33 -25 8z"/>
<path d="M4415 1314 c-5 -2 -89 -11 -185 -19 -96 -9 -222 -22 -280 -30 l-105
-14 90 5 c169 9 380 14 640 15 177 1 262 5 267 13 23 34 11 36 -204 35 -117 0
-217 -2 -223 -5z"/>
<path d="M7320 1210 c-13 -8 -12 -10 3 -10 10 0 16 -4 13 -9 -3 -5 3 -11 14
-14 16 -4 20 -15 22 -78 2 -59 6 -73 18 -71 8 2 42 5 75 8 34 2 93 8 132 14
40 5 79 7 88 3 15 -5 16 3 13 63 l-3 69 -89 -2 c-58 -1 -85 2 -75 8 17 11 -7
13 -97 10 -37 -2 -64 2 -68 8 -9 13 -26 14 -46 1z"/>
<path d="M3610 650 c52 -51 144 -133 203 -182 l108 -88 137 0 137 0 -117 54
c-162 75 -285 141 -533 290 -16 10 13 -24 65 -74z"/>
<path d="M7675 323 c-49 -6 -127 -17 -172 -23 l-83 -12 0 -59 c0 -32 3 -59 8
-59 22 0 335 49 338 53 3 3 4 29 2 58 l-3 54 -90 -12z"/>
</g>
</svg>
