<svg width="30" height="35" viewBox="0 0 30 35" fill="none" xmlns="http://www.w3.org/2000/svg">
<g clip-path="url(#clip0_53_526)">
<path d="M21.1628 10.234C21.6503 10.234 22.0482 10.6413 22.0482 11.1426C22.0482 11.6439 21.6531 12.0512 21.1628 12.0512L15.4189 12.0512C14.9314 12.0512 14.5335 11.6439 14.5335 11.1426C14.5335 10.6413 14.9286 10.234 15.4189 10.234L21.1628 10.234ZM21.1628 22.9602C21.6503 22.9602 22.0454 23.3618 22.0454 23.8574C22.0454 24.353 21.6503 24.7546 21.1628 24.7546H9.50406C9.01653 24.7546 8.62146 24.353 8.62146 23.8574C8.62146 23.3618 9.01653 22.9602 9.50406 22.9602H21.1628ZM14.0712 1.79443C13.5836 1.79443 13.1886 1.39282 13.1886 0.897213C13.1886 0.401608 13.5836 0 14.0712 0H27.9462C28.5122 0 29.0249 0.233559 29.3976 0.612381C29.7702 0.991207 30 1.51245 30 2.08781L30 32.9122C30 33.4875 29.7702 34.0088 29.3976 34.3876C29.0249 34.7664 28.5122 35 27.9462 35H2.72345C2.15747 35 1.64472 34.7664 1.27207 34.3876C0.899412 34.0088 0.669655 33.4875 0.669655 32.9122L0.669655 14.3213C0.669655 13.8257 1.06472 13.4241 1.55226 13.4241C2.03979 13.4241 2.43486 13.8257 2.43486 14.3213L2.43486 32.9122C2.43486 32.9919 2.46848 33.066 2.51891 33.1201C2.57215 33.1742 2.645 33.2056 2.72345 33.2056H27.9462C28.0247 33.2056 28.0975 33.1714 28.1507 33.1201C28.2012 33.0632 28.2348 32.9919 28.2348 32.9122L28.2348 2.09066C28.2348 2.0109 28.2012 1.93685 28.1507 1.88273C28.0975 1.82861 28.0247 1.79728 27.9462 1.79728H14.0712V1.79443ZM6.64612 11.1597C6.64612 11.6524 6.25105 12.054 5.76632 12.054C5.28159 12.054 4.88652 11.6524 4.88652 11.1597L4.89773 7.0695L0.879799 7.0581C0.395069 7.0581 0 6.65649 0 6.16374C0 5.67098 0.395069 5.26937 0.879799 5.26937L4.90053 5.28076L4.91174 1.19629C4.91174 0.703529 5.30681 0.301918 5.79154 0.301918C6.27627 0.301918 6.67134 0.703529 6.67134 1.19629L6.66013 5.28361L10.6781 5.295C11.1628 5.295 11.5579 5.69661 11.5579 6.18937C11.5579 6.68213 11.1628 7.08374 10.6781 7.08374L6.65453 7.07234L6.64612 11.1597ZM21.1628 16.6028C21.6503 16.6028 22.0454 17.0044 22.0454 17.5C22.0454 17.9956 21.6503 18.3972 21.1628 18.3972L9.50406 18.3972C9.01653 18.3972 8.62146 17.9956 8.62146 17.5C8.62146 17.0044 9.01653 16.6028 9.50406 16.6028L21.1628 16.6028Z" fill="#FF4500"/>
</g>
<defs>
<clipPath id="clip0_53_526">
<rect width="30" height="35" fill="white" transform="matrix(-1 0 0 -1 30 35)"/>
</clipPath>
</defs>
</svg>
