<svg width="50" height="50" viewBox="0 0 50 50" fill="none" xmlns="http://www.w3.org/2000/svg">
<path fill-rule="evenodd" clip-rule="evenodd" d="M45.0818 47.1298V49.087C45.0818 49.5937 44.6993 50 44.2314 50H5.53492C5.06291 50 4.68449 49.5894 4.68449 49.087V47.1298V36.7849V25.7322C3.73234 26.1254 2.84122 26.1342 2.10066 25.8633C1.52285 25.6536 1.03457 25.2779 0.676497 24.793C0.318422 24.3081 0.0905569 23.7183 0.0213834 23.0674C-0.0844113 22.0582 0.196352 20.918 0.99795 19.8477C1.03864 19.7953 1.0834 19.7429 1.1363 19.6992L24.3501 0.241278C24.6512 -0.0557887 25.1151 -0.0863691 25.4487 0.193223L48.7195 19.6162C48.7561 19.6467 48.7887 19.6773 48.8212 19.7166C49.8995 20.9617 50.1681 22.3422 49.9077 23.5086C49.7775 24.0853 49.5211 24.6051 49.1671 25.0289C48.8131 25.457 48.3614 25.789 47.8487 25.9856C47.0349 26.3002 46.0665 26.2914 45.0859 25.7934V36.7849V47.1298H45.0818ZM2.26342 21.0709C1.81176 21.7044 1.65306 22.3378 1.70596 22.8708C1.73851 23.1766 1.84024 23.4475 2.003 23.6659C2.16169 23.8799 2.37735 24.0416 2.63777 24.1377C3.08129 24.2993 3.65503 24.2556 4.31014 23.9236L24.5698 7.37525C24.8831 7.11751 25.3104 7.13061 25.6074 7.37962L45.2893 23.8057C45.2975 23.8144 45.3056 23.8232 45.3178 23.8275C46.038 24.3867 46.7298 24.4741 47.2669 24.2688C47.5151 24.1726 47.7307 24.0154 47.8976 23.81C48.0685 23.6047 48.1905 23.3601 48.2516 23.0849C48.3859 22.482 48.2231 21.7393 47.6209 21.0141L24.9279 2.07174L2.26342 21.0709ZM12.0413 32.9798H22.9056C23.3288 32.9798 23.6746 33.3424 23.6746 33.788V42.9141C23.6746 43.3597 23.3288 43.7223 22.9056 43.7223H12.0413C11.6181 43.7223 11.2722 43.3597 11.2722 42.9141V33.788C11.2763 33.3424 11.6181 32.9798 12.0413 32.9798ZM27.5565 32.176H37.7576C38.2133 32.176 38.5836 32.5866 38.5836 33.0934V48.1739H43.3769V24.7144C43.3769 24.6532 43.381 24.5964 43.3932 24.5396L25.0785 9.25377L6.35686 24.5483C6.37721 24.6226 6.38534 24.7013 6.38534 24.7843V48.1695H26.7305V33.089C26.7305 32.5823 27.1008 32.176 27.5565 32.176ZM36.9315 34.0064H28.3866V48.1521H36.9315V34.0064ZM22.1366 39.1571H18.1041V42.1059H22.1366V39.1571ZM16.5986 39.1571H12.8103V42.1059H16.5986V39.1571ZM12.8103 37.5407H16.5986V34.5962H12.8103V37.5407ZM18.1041 37.5407H22.1366V34.5962H18.1041V37.5407ZM24.7692 15.8722C26.2137 15.8722 27.3856 17.1304 27.3856 18.6813C27.3856 20.2321 26.2137 21.4903 24.7692 21.4903C23.3247 21.4903 22.1528 20.2321 22.1528 18.6813C22.1528 17.126 23.3247 15.8722 24.7692 15.8722Z" fill="#FF7712"/>
</svg>
