<svg width="50" height="50" viewBox="0 0 50 50" fill="none" xmlns="http://www.w3.org/2000/svg">
<g clip-path="url(#clip0_23_237)">
<path fill-rule="evenodd" clip-rule="evenodd" d="M26.3407 0.0127477L1.27426 3.47351C0.575949 3.5701 0 4.23747 0 4.90093V45.7705C0 46.431 0.568565 46.6857 1.27426 46.7764L26.3407 49.9932C27.0454 50.083 27.615 49.2351 27.615 48.5658V1.01868C27.615 0.349359 27.0316 -0.0818939 26.3407 0.0127477ZM39.5222 32.1206L39.5211 28.7965C39.4599 28.813 39.3945 28.8228 39.3281 28.8228H33.6878C33.3133 28.8228 33.0074 28.534 33.0074 28.1935V21.7344C33.0074 21.3949 33.3207 21.1051 33.6878 21.1051H39.3281C39.3945 21.1051 39.4589 21.1149 39.52 21.1315V17.8083C39.52 17.1946 40.058 16.696 40.7215 16.696C41.0686 16.696 41.3808 16.8326 41.6002 17.0502L49.6181 23.9678C50.1023 24.3844 50.1297 25.0869 49.6793 25.5347L41.5622 32.9099C41.0907 33.3392 40.3312 33.3334 39.8671 32.8973C39.6472 32.6898 39.5235 32.4112 39.5222 32.1206ZM30.3175 44.7597H33.5897V33.7061H36.2658V44.8192C36.2658 45.4797 35.9705 46.0827 35.4989 46.5208C35.0274 46.9618 34.3734 47.234 33.654 47.234H30.3175V44.7597ZM33.5897 16.2228V5.16925H30.3175V2.69491H33.654C34.3724 2.69491 35.0264 2.96712 35.4989 3.40423C35.9705 3.84134 36.2658 4.44626 36.2658 5.11071V16.2228H33.5897ZM24.3418 21.9325L21.712 21.3783V28.6218L24.3418 27.9213V21.9325Z" fill="#FF7712"/>
</g>
<defs>
<clipPath id="clip0_23_237">
<rect width="50" height="50" fill="white"/>
</clipPath>
</defs>
</svg>
