<svg width="50" height="55" viewBox="0 0 50 55" fill="none" xmlns="http://www.w3.org/2000/svg">
<path d="M19.3182 2.23796V4.47591C19.3171 4.7558 19.1948 5.02534 18.9752 5.23214C18.7555 5.43894 18.4542 5.56823 18.1297 5.59489C17.9799 5.63669 17.8233 5.65784 17.6658 5.65755H12.8232V10.2946H37.1612V5.67546H32.3186C32.161 5.67613 32.0044 5.65497 31.8547 5.61279C31.5275 5.58481 31.2245 5.45252 31.0054 5.24203C30.7864 5.03155 30.6672 4.75818 30.6714 4.47591V2.23796H19.3182ZM9.59133 22.0439C9.50542 21.9339 9.44556 21.8106 9.41518 21.6808C9.3848 21.551 9.38448 21.4174 9.41425 21.2875C9.44402 21.1576 9.50329 21.034 9.58867 20.9238C9.67406 20.8136 9.7839 20.7189 9.91191 20.6451C10.0399 20.5714 10.1836 20.52 10.3347 20.4939C10.4859 20.4678 10.6415 20.4675 10.7928 20.4931C10.944 20.5187 11.088 20.5695 11.2163 20.6429C11.3447 20.7162 11.455 20.8105 11.5409 20.9204L12.182 21.735L14.7206 19.0853C14.9183 18.8787 15.2035 18.7481 15.5133 18.7221C15.8232 18.696 16.1325 18.7768 16.373 18.9465C16.6136 19.1163 16.7657 19.3611 16.796 19.6272C16.8263 19.8933 16.7323 20.1588 16.5346 20.3654L13.0317 24.0356C12.9548 24.1246 12.8594 24.2004 12.7502 24.2594C12.6227 24.3337 12.4794 24.3855 12.3285 24.412C12.1775 24.4384 12.022 24.439 11.8708 24.4136C11.7197 24.3882 11.5758 24.3374 11.4476 24.2641C11.3194 24.1908 11.2094 24.0964 11.1239 23.9864L9.59133 22.0439ZM9.59133 32.4638C9.50473 32.3539 9.4442 32.2304 9.41318 32.1004C9.38217 31.9704 9.38128 31.8364 9.41056 31.7061C9.43985 31.5758 9.49873 31.4517 9.58386 31.341C9.66898 31.2302 9.77868 31.1349 9.90669 31.0606C10.1652 30.9104 10.4826 30.8546 10.7891 30.9054C11.0956 30.9562 11.366 31.1094 11.5409 31.3314L12.182 32.146L14.7206 29.4918C14.8185 29.3895 14.9389 29.3048 15.0749 29.2425C15.2109 29.1801 15.3599 29.1414 15.5133 29.1285C15.6668 29.1157 15.8217 29.1289 15.9692 29.1674C16.1167 29.2059 16.2539 29.269 16.373 29.353C16.4921 29.4371 16.5908 29.5405 16.6634 29.6573C16.736 29.774 16.781 29.902 16.796 30.0337C16.811 30.1655 16.7957 30.2985 16.7508 30.4251C16.706 30.5518 16.6325 30.6696 16.5346 30.7719L13.0317 34.4645C12.9565 34.5559 12.8608 34.6335 12.7502 34.6928C12.6224 34.7668 12.4788 34.8184 12.3277 34.8445C12.1766 34.8706 12.0209 34.8708 11.8697 34.845C11.7185 34.8192 11.5748 34.7679 11.4467 34.6942C11.3187 34.6204 11.209 34.5256 11.1239 34.4153L9.59133 32.4638ZM9.59133 43.2955C9.50542 43.1856 9.44556 43.0622 9.41518 42.9324C9.3848 42.8027 9.38448 42.669 9.41425 42.5391C9.44402 42.4092 9.50329 42.2857 9.58867 42.1754C9.67406 42.0652 9.7839 41.9705 9.91191 41.8968C10.0399 41.823 10.1836 41.7716 10.3347 41.7455C10.4859 41.7194 10.6415 41.7192 10.7928 41.7447C10.944 41.7703 11.088 41.8212 11.2163 41.8945C11.3447 41.9678 11.455 42.0621 11.5409 42.172L12.182 42.9911L14.7206 40.3369C14.9197 40.1304 15.2062 40.0002 15.517 39.975C15.8279 39.9498 16.1377 40.0317 16.3782 40.2026C16.6188 40.3736 16.7704 40.6196 16.7997 40.8865C16.8291 41.1534 16.7337 41.4194 16.5346 41.626L13.0317 45.2873C12.9548 45.3762 12.8594 45.4521 12.7502 45.5111C12.6227 45.5853 12.4794 45.6371 12.3285 45.6636C12.1775 45.6901 12.022 45.6906 11.8708 45.6652C11.7197 45.6399 11.5758 45.589 11.4476 45.5157C11.3194 45.4424 11.2094 45.348 11.1239 45.238L9.59133 43.2955ZM12.1977 12.6042C11.6744 12.6013 11.1731 12.423 10.8007 12.1073C10.7538 12.0671 10.7277 12.0268 10.6808 11.9865C10.3901 11.6815 10.2268 11.3018 10.2168 10.9078V8.62956H2.9191C2.87944 8.62815 2.83995 8.6347 2.80376 8.64869C2.76757 8.66267 2.73567 8.68371 2.71059 8.71012C2.65681 8.75907 2.62376 8.82213 2.61676 8.88916V52.4845C2.61167 52.5189 2.61774 52.5538 2.6343 52.5854C2.65085 52.617 2.67726 52.6441 2.71059 52.6636C2.73724 52.6884 2.76945 52.7083 2.80528 52.7221C2.8411 52.736 2.87982 52.7435 2.9191 52.7441H47.0809C47.1202 52.7435 47.1589 52.736 47.1947 52.7221C47.2306 52.7083 47.2628 52.6884 47.2894 52.6636C47.3219 52.6434 47.3477 52.6162 47.3642 52.5848C47.3806 52.5534 47.3872 52.5188 47.3832 52.4845V8.88916C47.3762 8.82213 47.3432 8.75907 47.2894 8.71012C47.2641 8.68397 47.2321 8.66312 47.196 8.64916C47.1599 8.6352 47.1205 8.6285 47.0809 8.62956H39.7832V10.9078C39.7738 11.3026 39.6083 11.683 39.314 11.9865C39.2723 12.0268 39.2462 12.0671 39.1993 12.1073C38.8269 12.423 38.3256 12.6013 37.8023 12.6042H12.1977ZM2.92952 55C2.15299 54.9988 1.40865 54.7334 0.85956 54.2619C0.310466 53.7904 0.00137806 53.1513 0 52.4845L0 8.88916C0.00137806 8.22238 0.310466 7.58325 0.85956 7.11177C1.40865 6.64028 2.15299 6.37488 2.92952 6.3737H10.2273V5.13387C10.2273 4.68474 10.4347 4.25394 10.8041 3.93594C11.1734 3.61793 11.6746 3.43868 12.1977 3.4375H16.7118V1.87988C16.7128 1.63366 16.771 1.39008 16.8829 1.16337C16.9947 0.93666 17.1581 0.731368 17.3634 0.559489C17.5628 0.38352 17.801 0.243415 18.0641 0.147354C18.3273 0.0512936 18.61 0.0012008 18.896 0L31.0936 0C31.3794 0.00169629 31.662 0.0520142 31.9251 0.148046C32.1881 0.244078 32.4264 0.383919 32.6261 0.559489C32.8346 0.733993 32.9998 0.942915 33.1118 1.17368C33.2238 1.40444 33.2802 1.65228 33.2777 1.90226V3.4375H37.7919C38.0513 3.4375 38.3083 3.48138 38.5479 3.56663C38.7876 3.65188 39.0054 3.77683 39.1889 3.93436C39.3723 4.09188 39.5178 4.27888 39.6171 4.4847C39.7164 4.69051 39.7675 4.9111 39.7675 5.13387V6.3737H47.0653C47.8427 6.3737 48.5884 6.63858 49.1386 7.11019C49.6888 7.5818 49.9986 8.22161 50 8.88916V52.4845C49.9986 53.1521 49.6888 53.7919 49.1386 54.2635C48.5884 54.7351 47.8427 55 47.0653 55H2.92952ZM39.8092 44.5801C40.1467 44.5619 40.4634 44.434 40.6949 44.2224C40.9264 44.0107 41.0552 43.7313 41.0552 43.441C41.0552 43.1506 40.9264 42.8712 40.6949 42.6596C40.4634 42.4479 40.1467 42.32 39.8092 42.3018H22.1852C21.8477 42.32 21.531 42.4479 21.2995 42.6596C21.068 42.8712 20.9391 43.1506 20.9391 43.441C20.9391 43.7313 21.068 44.0107 21.2995 44.2224C21.531 44.434 21.8477 44.5619 22.1852 44.5801H39.8092ZM39.8092 22.7376C40.1467 22.7195 40.4634 22.5915 40.6949 22.3799C40.9264 22.1683 41.0552 21.8889 41.0552 21.5985C41.0552 21.3082 40.9264 21.0287 40.6949 20.8171C40.4634 20.6055 40.1467 20.4776 39.8092 20.4594H22.1852C21.8477 20.4776 21.531 20.6055 21.2995 20.8171C21.068 21.0287 20.9391 21.3082 20.9391 21.5985C20.9391 21.8889 21.068 22.1683 21.2995 22.3799C21.531 22.5915 21.8477 22.7195 22.1852 22.7376H39.8092ZM39.8092 33.5112C40.1467 33.493 40.4634 33.3651 40.6949 33.1534C40.9264 32.9418 41.0552 32.6624 41.0552 32.372C41.0552 32.0817 40.9264 31.8023 40.6949 31.5906C40.4634 31.379 40.1467 31.2511 39.8092 31.2329H22.1852C21.8477 31.2511 21.531 31.379 21.2995 31.5906C21.068 31.8023 20.9391 32.0817 20.9391 32.372C20.9391 32.6624 21.068 32.9418 21.2995 33.1534C21.531 33.3651 21.8477 33.493 22.1852 33.5112H39.8092Z" fill="#FF7712"/>
</svg>
