<svg width="90" height="85" viewBox="0 0 90 85" fill="none" xmlns="http://www.w3.org/2000/svg">
<path d="M86.0455 59.1136L82.7727 58.5985C82.3636 57.4394 81.9546 56.2803 81.2727 55.25L83.1818 52.6742C83.5909 52.1591 83.4546 51.5151 83.0455 51L78.5455 46.75C78.1364 46.3636 77.3182 46.2348 76.9091 46.6212L74.1818 48.4242C73.0909 47.7803 71.8636 47.3939 70.6364 47.0076L70.0909 43.9167C69.9546 43.2727 69.4091 42.8864 68.7273 42.8864H65.5909V14.1667H75.9546C76.6364 14.1667 77.3182 13.6515 77.3182 12.8788V8.11363C77.3182 4.37878 74.0455 1.28787 70.0909 1.28787H17.5909C13.6364 1.28787 10.3636 4.37878 10.3636 8.11363V60.6591H4.22728C3.54547 60.6591 2.86365 61.1742 2.86365 61.947V66.7121C2.86365 70.447 6.13637 73.5379 10.0909 73.5379H48L47.7273 73.9242C47.3182 74.4394 47.4546 75.0833 47.8636 75.5985L52.3637 79.8485C52.7727 80.2348 53.5909 80.3636 54.1364 79.9773L56.8637 78.1742C57.9546 78.8182 59.1818 79.2045 60.4091 79.5909L60.9546 82.6818C61.0909 83.3257 61.6364 83.7121 62.3182 83.7121H68.5909C69.2727 83.7121 69.8182 83.3257 69.9546 82.6818L70.5 79.5909C71.7273 79.2045 72.9546 78.8182 74.0455 78.1742L76.7727 79.9773C77.3182 80.3636 78 80.2348 78.5455 79.8485L83.0455 75.5985C83.4546 75.2121 83.5909 74.4394 83.1818 74.053L81.2727 71.4773C81.9546 70.3182 82.3636 69.2879 82.7727 68.1288L86.0455 67.6136C86.7273 67.4848 87.1364 66.9697 87.1364 66.3258V60.4015C87.1364 59.7576 86.7273 59.2424 86.0455 59.1136ZM74.5909 8.11363V11.5909H65.5909V8.11363C65.5909 5.79545 67.6364 3.86363 70.0909 3.86363C72.6818 3.86363 74.5909 5.66666 74.5909 8.11363ZM13.0909 8.11363C13.0909 5.79545 15.1364 3.86363 17.5909 3.86363H64.5C63.5455 4.89393 62.8636 6.56818 62.8636 8.11363V42.8864H62.4546C61.7727 42.8864 61.2273 43.2727 61.0909 43.9167L60.5455 47.0076C59.3182 47.3939 58.0909 47.7803 57 48.4242L54.2727 46.6212C53.7273 46.2348 53.0455 46.3636 52.6364 46.75L48.1364 51C47.7273 51.3864 47.5909 52.1591 48 52.5454L49.9091 55.1212C49.2273 56.1515 48.8182 57.3106 48.4091 58.4697L45 58.8561C44.3182 58.9848 43.9091 59.5 43.9091 60.1439V60.6591H13.0909V8.11363ZM5.59092 66.5833V63.1061H43.9091V66.0682C43.9091 66.7121 44.3182 67.2273 45 67.356L47.1818 67.7424L48.2727 67.8712C48.6818 69.0303 49.2273 70.447 49.5 70.9621H10.0909C7.63637 70.9621 5.59092 69.0303 5.59092 66.5833ZM84.4091 65.2954L81.4091 65.8106C80.8636 65.9394 80.4546 66.3257 80.3182 66.7121C79.9091 68.1288 79.3636 69.5454 78.4091 70.8333C78.1364 71.2197 78.1364 71.7348 78.4091 72.25L80.1818 74.5682L77.3182 77.2727L74.8637 75.5985C74.4546 75.3409 73.9091 75.3409 73.3636 75.5985C72 76.3712 70.5 77.0151 68.8636 77.2727C68.3182 77.4015 67.9091 77.7879 67.9091 78.303L67.3637 81.1364H63.2727L62.7273 78.303C62.5909 77.7879 62.1818 77.4015 61.7727 77.2727C60.2727 76.8864 58.7727 76.3712 57.4091 75.4697C57 75.2121 56.4546 75.2121 55.9091 75.4697L53.4546 77.2727L50.5909 74.5682L51.6818 73.0227L52.3637 72.25C52.6364 71.8636 52.6364 71.3485 52.3637 70.8333C51.6818 69.6742 51.1364 68.5151 50.7273 67.356C50.4546 66.5833 50.4546 65.8106 49.5 65.6818L47.7273 65.2954L46.5 65.0379V61.1742L49.5 60.6591C50.0455 60.5303 50.4546 60.1439 50.5909 59.7576C51 58.3409 51.5455 56.9242 52.5 55.6364C52.7727 55.25 52.7727 54.6061 52.5 54.2197L50.7273 51.9015L53.5909 49.197L56.0455 50.8712C56.4546 51.1288 57 51.1288 57.5455 50.8712C58.9091 50.0985 60.4091 49.4545 62.0455 49.197C62.5909 49.0682 63 48.6818 63 48.1667L63.5455 45.3333H67.6364L68.1818 48.1667C68.3182 48.6818 68.7273 49.0682 69.1364 49.197C70.6364 49.5833 72.1364 50.0985 73.5 51C73.9091 51.2576 74.4546 51.2576 75 51L77.4546 49.3257L80.3182 52.0303L78.5455 54.3485C78.2727 54.7348 78.2727 55.25 78.5455 55.7651C79.3636 57.053 80.0455 58.4697 80.3182 60.0151C80.4546 60.5303 80.8636 60.9167 81.4091 60.9167L84.4091 61.4318V65.2954Z" fill="black"/>
<path d="M63.8182 45.3333C60.9546 45.3333 58.2273 46.3636 56.1818 48.2954C54.2727 50.2273 53.0455 52.803 53.0455 55.5076C53.0455 61.0454 57.8182 65.6818 63.8182 65.6818C69.6818 65.6818 74.5909 61.1742 74.5909 55.5076C74.5909 52.803 73.5 50.2273 71.4546 48.2954C69.4091 46.4924 66.6818 45.3333 63.8182 45.3333ZM63.8182 63.1061C59.3182 63.1061 55.7727 59.6288 55.7727 55.5076C55.7727 53.447 56.5909 51.5151 58.0909 50.0985C59.5909 48.6818 61.6364 47.9091 63.8182 47.9091C66 47.9091 68.0455 48.6818 69.5455 50.0985C71.0455 51.5151 71.8636 53.447 71.8636 55.5076C71.8636 59.7576 68.3182 63.1061 63.8182 63.1061ZM27.1364 1.28787H17.7273C17.0455 1.28787 16.3636 1.80302 16.3636 2.57575V11.5909C16.3636 12.2348 16.9091 12.8788 17.7273 12.8788H27.1364C27.8182 12.8788 28.5 12.3636 28.5 11.5909V2.57575C28.5 1.93181 27.9546 1.28787 27.1364 1.28787ZM25.9091 10.303H19.0909V3.86363H25.9091V10.303ZM27.1364 18.803H17.7273C17.0455 18.803 16.3636 19.3182 16.3636 20.0909V28.9773C16.3636 29.6212 16.9091 30.2651 17.7273 30.2651H27.1364C27.8182 30.2651 28.5 29.75 28.5 28.9773V20.0909C28.5 19.3182 27.9546 18.803 27.1364 18.803ZM25.9091 27.6894H19.0909V21.25H25.9091V27.6894ZM27.1364 36.1894H17.7273C17.0455 36.1894 16.3636 36.7045 16.3636 37.4773V46.3636C16.3636 47.0076 16.9091 47.6515 17.7273 47.6515H27.1364C27.8182 47.6515 28.5 47.1364 28.5 46.3636V37.4773C28.5 36.7045 27.9546 36.1894 27.1364 36.1894ZM25.9091 45.0757H19.0909V38.6364H25.9091V45.0757ZM34.3636 4.89393H55.6364C56.3182 4.89393 57 4.37878 57 3.60605C57 2.96211 56.4546 2.31818 55.6364 2.31818H34.3636C33.6818 2.31818 33 2.83333 33 3.60605C33 4.24999 33.6818 4.89393 34.3636 4.89393ZM34.3636 11.8485H48.9546C49.6364 11.8485 50.3182 11.3333 50.3182 10.5606C50.3182 9.91666 49.7727 9.27272 48.9546 9.27272H34.3636C33.6818 9.27272 33 9.78787 33 10.5606C33 11.2045 33.6818 11.8485 34.3636 11.8485ZM34.3636 22.2803H55.6364C56.3182 22.2803 57 21.7651 57 20.9924C57 20.3485 56.4546 19.7045 55.6364 19.7045H34.3636C33.6818 19.7045 33 20.2197 33 20.9924C33 21.6364 33.6818 22.2803 34.3636 22.2803ZM34.3636 29.2348H48.9546C49.6364 29.2348 50.3182 28.7197 50.3182 27.947C50.3182 27.303 49.7727 26.6591 48.9546 26.6591H34.3636C33.6818 26.6591 33 27.1742 33 27.947C33 28.7197 33.6818 29.2348 34.3636 29.2348ZM34.3636 39.6667H42.1364C42.8182 39.6667 43.5 39.1515 43.5 38.3788C43.5 37.7348 42.9546 37.0909 42.1364 37.0909H34.3636C33.6818 37.0909 33 37.6061 33 38.3788C33 39.1515 33.6818 39.6667 34.3636 39.6667ZM43.5 45.4621C43.5 44.8182 42.9546 44.1742 42.1364 44.1742H34.3636C33.6818 44.1742 33 44.6894 33 45.4621C33 46.2348 33.5455 46.75 34.3636 46.75H42.1364C42.9546 46.6212 43.5 46.1061 43.5 45.4621Z" fill="black"/>
</svg>
