<svg width="110" height="110" viewBox="0 0 110 110" fill="none" xmlns="http://www.w3.org/2000/svg">
<path d="M60.759 97.12C59.9586 97.1197 59.1638 96.9866 58.407 96.726L32.728 87.583C31.8586 87.2632 30.9394 87.1 30.013 87.101H24.643C24.3778 87.101 24.1234 86.9956 23.9359 86.8081C23.7484 86.6206 23.643 86.3662 23.643 86.101L23.652 60.65C23.652 60.3848 23.7574 60.1304 23.9449 59.9429C24.1324 59.7554 24.3868 59.65 24.652 59.65H33.362C36.4961 59.6466 39.6059 60.1991 42.547 61.282L54.589 65.682H68.473C69.2557 65.6839 70.0297 65.8455 70.7478 66.1569C71.4658 66.4683 72.1128 66.9229 72.649 67.493C73.1425 68.0061 73.5245 68.6158 73.7708 69.2837C74.017 69.9517 74.1223 70.6634 74.08 71.374C74.0449 71.9139 73.9279 72.4453 73.733 72.95L95.442 66.156C96.4014 65.7263 97.4659 65.5879 98.5033 65.7582C99.5406 65.9284 100.505 66.3997 101.277 67.1135C102.049 67.8273 102.594 68.7521 102.844 69.773C103.095 70.794 103.04 71.8661 102.686 72.856L102.673 72.889L101.741 72.525L102.669 72.899C102.64 72.9797 102.604 73.0576 102.561 73.132C102.048 74.3466 101.103 75.3282 99.909 75.888L64.268 96.188C63.2 96.8004 61.9901 97.1218 60.759 97.12ZM25.643 85.1H30.013C31.1709 85.0981 32.32 85.3012 33.407 85.7L59.067 94.836C59.7551 95.0757 60.4865 95.1654 61.2122 95.099C61.9378 95.0326 62.6408 94.8116 63.274 94.451L98.987 74.111C99.7873 73.7555 100.417 73.1019 100.743 72.289C100.763 72.2403 100.786 72.1932 100.813 72.148C101.03 71.525 101.059 70.8517 100.896 70.2122C100.733 69.5728 100.385 68.9957 99.8957 68.553C99.4063 68.1104 98.7973 67.8218 98.1447 67.7234C97.4922 67.6251 96.8252 67.7213 96.227 68C96.1866 68.0194 96.1448 68.0358 96.102 68.049L70.791 75.969C70.5468 76.0437 70.2833 76.0222 70.0545 75.9088C69.8257 75.7954 69.649 75.5988 69.5605 75.3593C69.472 75.1198 69.4785 74.8555 69.5786 74.6206C69.6787 74.3857 69.8649 74.198 70.099 74.096C70.6615 73.8527 71.1452 73.4576 71.4958 72.955C71.8463 72.4523 72.05 71.8619 72.084 71.25C72.1077 70.8124 72.0405 70.3746 71.8869 69.9642C71.7332 69.5537 71.4963 69.1795 71.191 68.865C70.8421 68.4937 70.4211 68.1976 69.9537 67.9947C69.4864 67.7918 68.9825 67.6864 68.473 67.685H54.412C54.295 67.6849 54.1789 67.6643 54.069 67.624L41.859 63.164C40.1616 62.5408 38.4011 62.1049 36.609 61.864C35.5325 61.7217 34.4478 61.6509 33.362 61.652H25.652L25.643 85.1ZM100.8 72.188L100.794 72.202L101.743 72.521L100.8 72.188Z" fill="black"/>
<path d="M68.732 76.391H53.622C53.3568 76.391 53.1024 76.2856 52.9149 76.0981C52.7274 75.9106 52.622 75.6562 52.622 75.391C52.622 75.1258 52.7274 74.8714 52.9149 74.6839C53.1024 74.4963 53.3568 74.391 53.622 74.391H68.732C68.9183 74.3909 69.1042 74.3756 69.288 74.345L69.309 74.338L70.189 74.058C70.4311 73.982 70.693 74.0008 70.9216 74.1107C71.1503 74.2206 71.3287 74.4133 71.4206 74.6498C71.5125 74.8862 71.5111 75.1488 71.4167 75.3843C71.3223 75.6198 71.1418 75.8106 70.912 75.918C70.2286 76.2329 69.4845 76.3943 68.732 76.391ZM21.622 94.551H11.022C9.95507 94.5483 8.93269 94.1229 8.17882 93.3679C7.42495 92.6129 7.00106 91.5899 7 90.523V55.828C7.00106 54.7605 7.42536 53.7371 8.17988 52.982C8.9344 52.2269 9.95755 51.8018 11.025 51.8H21.625C22.6927 51.801 23.7164 52.2257 24.4713 52.9806C25.2263 53.7356 25.6509 54.7593 25.652 55.827V90.523C25.6509 91.5913 25.2259 92.6155 24.4703 93.3708C23.7147 94.126 22.6903 94.5505 21.622 94.551ZM11.025 53.8C10.4877 53.801 9.97284 54.0151 9.59322 54.3953C9.2136 54.7755 9.00026 55.2907 9 55.828V90.523C9.00026 91.0606 9.21388 91.5761 9.59393 91.9564C9.97398 92.3366 10.4894 92.5505 11.027 92.551H21.627C22.1646 92.5505 22.68 92.3366 23.0601 91.9564C23.4401 91.5761 23.6537 91.0606 23.654 90.523V55.828C23.6539 55.5614 23.6012 55.2974 23.499 55.0511C23.3968 54.8049 23.247 54.5812 23.0583 54.3929C22.8696 54.2045 22.6456 54.0552 22.3992 53.9535C22.1527 53.8518 21.8886 53.7996 21.622 53.8H11.025Z" fill="black"/>
<path d="M70.492 76.011C70.2618 76.0107 70.0388 75.931 69.8606 75.7854C69.6823 75.6398 69.5598 75.4371 69.5136 75.2116C69.4674 74.9861 69.5004 74.7516 69.6071 74.5477C69.7137 74.3437 69.8875 74.1827 70.099 74.092C70.6615 73.8487 71.1452 73.4536 71.4958 72.951C71.8463 72.4483 72.05 71.8579 72.084 71.246C72.1077 70.8084 72.0405 70.3706 71.8868 69.9601C71.7332 69.5497 71.4963 69.1755 71.191 68.861C70.8421 68.4897 70.4211 68.1936 69.9537 67.9907C69.4864 67.7878 68.9825 67.6824 68.473 67.681H54.412C54.295 67.6809 54.1789 67.6602 54.069 67.62L41.859 63.16C40.1616 62.5368 38.4011 62.1009 36.609 61.86C36.4741 61.8418 36.3444 61.7962 36.2277 61.7261C36.111 61.656 36.0099 61.5628 35.9305 61.4522C35.8511 61.3417 35.7951 61.2161 35.766 61.0831C35.7368 60.9501 35.7351 60.8126 35.761 60.679C37.861 49.808 45.896 39.159 55.29 34.779C55.4711 34.6942 55.6736 34.6659 55.871 34.698H71.013C71.2142 34.6604 71.4222 34.6899 71.605 34.782C82.27 39.744 90.878 52.45 91.63 64.337C91.6989 65.4702 91.6782 66.6071 91.568 67.737C91.536 68.143 91.492 68.547 91.429 68.932C91.3988 69.1146 91.3184 69.2852 91.197 69.4249C91.0755 69.5645 90.9176 69.6677 90.741 69.723L70.791 75.963C70.6943 75.994 70.5935 76.0102 70.492 76.011ZM54.592 65.681H68.473C69.2557 65.6829 70.0297 65.8444 70.7478 66.1558C71.4658 66.4672 72.1128 66.9219 72.649 67.492C73.1425 68.0051 73.5245 68.6148 73.7708 69.2827C74.017 69.9506 74.1223 70.6624 74.08 71.373C74.0449 71.9129 73.9279 72.4443 73.733 72.949L89.533 68.007C89.549 67.862 89.562 67.717 89.573 67.571V67.552C89.6736 66.5248 89.6927 65.4912 89.63 64.461C88.941 53.518 80.769 41.376 70.98 36.7H55.915C47.451 40.747 40.2 50.207 37.94 60.045C39.5096 60.3188 41.0514 60.7327 42.547 61.282L54.592 65.681ZM55.247 29.857C55.0889 29.857 54.933 29.8194 54.7922 29.7474C54.6514 29.6755 54.5297 29.5711 54.437 29.443C52.8989 27.1742 51.7354 24.673 50.991 22.035C50.8649 21.6172 50.8484 21.174 50.9431 20.748C51.0379 20.322 51.2406 19.9275 51.5319 19.6026C51.8232 19.2776 52.1933 19.0331 52.6064 18.8925C53.0196 18.752 53.462 18.7201 53.891 18.8C55.3281 19.0735 56.7315 19.501 58.077 20.075C58.1538 20.1085 58.2369 20.1253 58.3208 20.1241C58.4046 20.1229 58.4872 20.1037 58.563 20.068C58.6316 20.0356 58.6923 19.9889 58.7412 19.9309C58.79 19.8729 58.8258 19.8051 58.846 19.732C59.4412 17.7962 60.246 15.9311 61.246 14.17C61.4666 13.7782 61.7874 13.4521 62.1756 13.2251C62.5638 12.9982 63.0053 12.8786 63.455 12.8786C63.9047 12.8786 64.3462 12.9982 64.7344 13.2251C65.1226 13.4521 65.4434 13.7782 65.664 14.17C66.6724 15.9266 67.4776 17.7923 68.064 19.731C68.0844 19.8042 68.1205 19.872 68.17 19.9297C68.2194 19.9874 68.2808 20.0336 68.35 20.065C68.4261 20.1006 68.5089 20.1196 68.5928 20.1206C68.6768 20.1216 68.7601 20.1047 68.837 20.071C70.1746 19.4979 71.5704 19.0718 73 18.8C73.4311 18.72 73.8755 18.7525 74.2903 18.8945C74.7051 19.0365 75.0762 19.2831 75.3679 19.6105C75.6595 19.9379 75.8616 20.335 75.9549 20.7634C76.0481 21.1918 76.0292 21.637 75.9 22.056C75.1191 24.7027 73.8973 27.1988 72.286 29.439C72.1857 29.5711 72.0541 29.6762 71.9032 29.7448C71.7522 29.8134 71.5865 29.8434 71.421 29.832C71.2853 29.8203 71.1492 29.8137 71.013 29.812H55.892C55.728 29.8098 55.5642 29.8208 55.402 29.845C55.3507 29.853 55.2989 29.857 55.247 29.857ZM53.415 20.757C53.3315 20.7594 53.2496 20.781 53.1758 20.82C53.1019 20.859 53.0379 20.9145 52.9889 20.9821C52.9398 21.0497 52.9069 21.1277 52.8927 21.21C52.8785 21.2924 52.8834 21.3769 52.907 21.457C53.5449 23.6989 54.4991 25.8385 55.741 27.811H70.992C72.3047 25.8588 73.3129 23.7184 73.982 21.463C74.0102 21.3732 74.0143 21.2776 73.9942 21.1857C73.974 21.0938 73.9302 21.0087 73.867 20.939C73.8062 20.8688 73.728 20.8158 73.6402 20.7852C73.5525 20.7547 73.4583 20.7477 73.367 20.765C72.0789 21.0097 70.8212 21.3936 69.616 21.91C69.2786 22.0535 68.9148 22.1244 68.5482 22.1182C68.1816 22.112 67.8204 22.0288 67.488 21.874C67.1653 21.7209 66.8785 21.5017 66.646 21.2305C66.4136 20.9593 66.2409 20.6423 66.139 20.3C65.5934 18.5074 64.8484 16.7816 63.918 15.155C63.8715 15.0717 63.8036 15.0023 63.7213 14.954C63.6391 14.9057 63.5454 14.8803 63.45 14.8803C63.3546 14.8803 63.2609 14.9057 63.1787 14.954C63.0964 15.0023 63.0285 15.0717 62.982 15.155C62.0552 16.7857 61.3098 18.513 60.759 20.306C60.6576 20.6468 60.4859 20.9625 60.2549 21.2327C60.0239 21.503 59.7388 21.7218 59.418 21.875C59.0871 22.0312 58.7269 22.1157 58.3611 22.1231C57.9953 22.1305 57.632 22.0606 57.295 21.918C56.0804 21.3996 54.8134 21.0137 53.516 20.767C53.4828 20.76 53.4489 20.7573 53.415 20.757Z" fill="black"/>
<path d="M72.183 36.7H54.583C54.52 36.7 54.447 36.7 54.383 36.69C53.2478 36.6381 52.1762 36.1507 51.3908 35.3293C50.6055 34.5079 50.1669 33.4154 50.166 32.279C50.1711 31.2123 50.5596 30.1831 51.2605 29.379C51.9614 28.5749 52.928 28.0497 53.984 27.899C54.1826 27.8692 54.3832 27.8551 54.584 27.857H72.184C72.322 27.857 72.47 27.866 72.607 27.877C73.7019 27.9806 74.7188 28.4891 75.4586 29.3028C76.1984 30.1166 76.6079 31.1772 76.607 32.277C76.6106 33.4137 76.1742 34.5076 75.3893 35.3297C74.6043 36.1518 73.5316 36.6382 72.396 36.687C72.3253 36.6952 72.2542 36.6996 72.183 36.7ZM54.583 29.857C54.48 29.8555 54.377 29.8622 54.275 29.877C53.693 29.9561 53.1589 30.2422 52.7707 30.683C52.3824 31.1238 52.166 31.6897 52.161 32.277C52.1596 32.5931 52.2213 32.9063 52.3425 33.1982C52.4638 33.4901 52.6421 33.7549 52.867 33.977C53.2925 34.4144 53.872 34.6684 54.482 34.685C54.5371 34.6869 54.5919 34.6932 54.646 34.704L72.183 34.7C72.8032 34.6988 73.3994 34.4598 73.8486 34.0321C74.2978 33.6044 74.5658 33.0206 74.5973 32.4012C74.6288 31.7817 74.4215 31.1738 74.0181 30.7027C73.6147 30.2316 73.0459 29.9332 72.429 29.869C72.363 29.869 72.271 29.857 72.183 29.857H54.583ZM68.208 57.711C67.8146 58.2868 67.2723 58.7451 66.639 59.037C65.9003 59.3815 65.1004 59.5756 64.286 59.608V60.983C64.2887 61.0599 64.2755 61.1365 64.2473 61.2081C64.2191 61.2797 64.1764 61.3447 64.122 61.399C64.005 61.503 63.8544 61.5612 63.6979 61.5631C63.5413 61.5649 63.3894 61.5102 63.27 61.409C63.2143 61.3535 63.171 61.2868 63.1427 61.2134C63.1145 61.1401 63.102 61.0615 63.106 60.983V59.608C61.7619 59.5289 60.4411 59.2219 59.2 58.7C59.0425 58.634 58.9079 58.523 58.813 58.381C58.7016 58.2258 58.6474 58.0367 58.6596 57.846C58.6718 57.6554 58.7497 57.4748 58.88 57.335C58.9521 57.2559 59.0405 57.1934 59.139 57.1516C59.2376 57.1098 59.344 57.0898 59.451 57.093C59.5781 57.0927 59.7039 57.1192 59.82 57.171C60.8587 57.6334 61.9751 57.896 63.111 57.945V53.49C62.3528 53.2986 61.6114 53.0461 60.894 52.735C60.3092 52.4758 59.7949 52.0805 59.394 51.582C58.9797 51.0424 58.7674 50.3748 58.794 49.695C58.7889 49.0424 58.9592 48.4003 59.287 47.836C59.6425 47.2419 60.1509 46.754 60.759 46.423C61.4834 46.0263 62.2866 45.7948 63.111 45.745V44.389C63.1077 44.2313 63.1666 44.0786 63.275 43.964C63.3282 43.9068 63.3931 43.8617 63.4652 43.8317C63.5373 43.8017 63.6149 43.7875 63.693 43.79C63.7721 43.7889 63.8506 43.8037 63.9239 43.8335C63.9972 43.8633 64.0637 43.9074 64.1197 43.9633C64.1756 44.0193 64.2197 44.0858 64.2495 44.1591C64.2793 44.2324 64.2941 44.3109 64.293 44.39V45.726C65.4438 45.7558 66.5822 45.9716 67.664 46.365C67.829 46.4133 67.9726 46.5164 68.0711 46.6573C68.1697 46.7982 68.2172 46.9684 68.206 47.14C68.2059 47.347 68.1301 47.5469 67.993 47.702C67.9245 47.784 67.8382 47.8493 67.7406 47.8928C67.643 47.9363 67.5368 47.9569 67.43 47.953C67.3235 47.9465 67.219 47.9204 67.122 47.876C66.2107 47.5602 65.257 47.3839 64.293 47.353V51.96C65.083 52.135 65.8573 52.3749 66.608 52.677C67.2092 52.926 67.7383 53.3217 68.147 53.828C68.583 54.4095 68.8023 55.125 68.767 55.851C68.7715 56.513 68.5767 57.1611 68.208 57.711ZM61.2 50.876C61.7832 51.2517 62.4286 51.5205 63.106 51.67V47.41C62.4339 47.4736 61.7915 47.7179 61.247 48.117C61.0239 48.2843 60.8441 48.5024 60.7223 48.7532C60.6006 49.004 60.5405 49.2803 60.547 49.559C60.5358 49.8158 60.5898 50.0713 60.704 50.3016C60.8181 50.5319 60.9888 50.7295 61.2 50.876ZM67.017 55.736C67.0217 55.4963 66.96 55.26 66.8388 55.0531C66.7175 54.8463 66.5415 54.677 66.33 54.564C65.6863 54.2136 64.999 53.9499 64.286 53.78V57.943C66.108 57.8143 67.0183 57.0787 67.017 55.736Z" fill="black"/>
</svg>
