<svg width="150" height="150" viewBox="0 0 150 150" fill="none" xmlns="http://www.w3.org/2000/svg">
<path d="M96.836 37.4799C96.7578 37.4799 96.6786 37.46 96.6061 37.4181C95.1702 36.5876 93.6717 35.8325 92.152 35.1739C91.9189 35.0729 91.8119 34.8021 91.9129 34.569C92.0139 34.3359 92.2846 34.2288 92.5179 34.3299C94.0699 35.0025 95.6003 35.7736 97.0667 36.6217C97.2866 36.7489 97.3617 37.0303 97.2346 37.2502C97.1494 37.3976 96.9948 37.4799 96.836 37.4799ZM53.4496 37.2213C53.2888 37.2213 53.1328 37.1369 53.0483 36.9868C52.9237 36.7654 53.0022 36.485 53.2236 36.3604C54.6999 35.5298 56.2393 34.7772 57.7989 34.1233C58.0333 34.025 58.3027 34.1353 58.401 34.3696C58.4992 34.6039 58.3889 34.8735 58.1546 34.9717C56.6275 35.6119 55.1202 36.3489 53.6747 37.1622C53.6034 37.2023 53.526 37.2213 53.4496 37.2213ZM87.6018 33.4786C87.5577 33.4786 87.513 33.4723 87.4687 33.4589C85.8829 32.9803 84.2511 32.5894 82.6183 32.2969C82.3683 32.2521 82.2019 32.0131 82.2467 31.763C82.2915 31.513 82.5308 31.3466 82.7805 31.3914C84.4481 31.6901 86.1148 32.0894 87.7344 32.5782C87.9777 32.6515 88.1153 32.9082 88.0419 33.1514C87.982 33.3504 87.7994 33.4786 87.6018 33.4786ZM62.7293 33.3314C62.5296 33.3314 62.3457 33.2003 62.2876 32.9989C62.2171 32.7549 62.3578 32.4999 62.6019 32.4294C64.2265 31.9603 65.8974 31.581 67.5681 31.302C67.8184 31.2603 68.0557 31.4294 68.0976 31.68C68.1394 31.9306 67.9702 32.1676 67.7196 32.2095C66.0837 32.4825 64.4478 32.8539 62.8572 33.3132C62.8145 33.3255 62.7715 33.3314 62.7293 33.3314ZM77.695 31.702C77.6854 31.702 77.6757 31.7017 77.6659 31.7011C76.7564 31.6442 75.8313 31.6155 74.9162 31.6155C74.1715 31.6155 73.4181 31.6345 72.6768 31.6722C72.423 31.6851 72.207 31.4899 72.1941 31.2362C72.1812 30.9825 72.3764 30.7664 72.6301 30.7535C73.3869 30.715 74.156 30.6955 74.9162 30.6955C75.8504 30.6955 76.7948 30.7249 77.7233 30.783C77.9768 30.7988 78.1696 31.0172 78.1537 31.2708C78.1384 31.5145 77.9359 31.702 77.695 31.702ZM74.9162 119.305C74.2368 119.305 73.5496 119.289 72.8737 119.258C72.6199 119.247 72.4236 119.032 72.4351 118.778C72.4466 118.524 72.6613 118.328 72.9155 118.339C73.5775 118.369 74.2507 118.385 74.9162 118.385C75.9112 118.385 76.9167 118.351 77.9046 118.283C78.1578 118.266 78.3774 118.458 78.3946 118.711C78.4119 118.965 78.2204 119.184 77.9669 119.201C76.9584 119.27 75.9319 119.304 74.9162 119.305ZM67.8805 118.743C67.8562 118.743 67.8315 118.741 67.8067 118.737C66.1339 118.467 64.4605 118.097 62.8329 117.637C62.5884 117.567 62.4463 117.313 62.5155 117.069C62.5846 116.824 62.8387 116.682 63.0833 116.751C64.6768 117.202 66.3154 117.565 67.9533 117.829C68.204 117.869 68.3746 118.105 68.3341 118.356C68.2976 118.582 68.1023 118.743 67.8805 118.743ZM82.9347 118.573C82.7172 118.573 82.5239 118.418 82.4829 118.197C82.4368 117.947 82.6018 117.707 82.8516 117.661C84.482 117.359 86.1112 116.96 87.694 116.472C87.9367 116.398 88.1942 116.534 88.2689 116.777C88.3436 117.02 88.2073 117.277 87.9645 117.352C86.3479 117.849 84.684 118.257 83.0188 118.565C82.9906 118.57 82.9625 118.573 82.9347 118.573ZM58.1951 116.003C58.1366 116.003 58.0772 115.992 58.0198 115.968C56.4564 115.323 54.9127 114.579 53.4318 113.756C53.2097 113.632 53.1297 113.352 53.253 113.13C53.3764 112.908 53.6565 112.828 53.8785 112.952C55.3287 113.757 56.8401 114.486 58.3708 115.118C58.6057 115.215 58.7174 115.484 58.6205 115.719C58.5472 115.896 58.3758 116.003 58.1951 116.003ZM92.5523 115.613C92.3754 115.613 92.2068 115.511 92.131 115.339C92.0287 115.106 92.1343 114.835 92.3669 114.732C93.8825 114.066 95.3767 113.303 96.8081 112.464C97.0273 112.336 97.3091 112.41 97.4375 112.629C97.5659 112.848 97.4922 113.13 97.273 113.258C95.8113 114.114 94.2852 114.894 92.7373 115.574C92.677 115.601 92.6141 115.613 92.5523 115.613Z" fill="black"/>
<path d="M115.406 69.4452H111.918C111.664 69.4452 111.458 69.2393 111.458 68.9852C111.458 68.7311 111.664 68.5252 111.918 68.5252H115.406C116.224 68.5252 116.89 67.8598 116.89 67.0419V43.1383C116.89 42.3204 116.224 41.655 115.406 41.655H76.0346C75.2167 41.655 74.5512 42.3204 74.5512 43.1383V67.0419C74.5512 67.8598 75.2166 68.5252 76.0345 68.5252H101.833C102.087 68.5252 102.293 68.7311 102.293 68.9852C102.293 69.2393 102.087 69.4452 101.833 69.4452H76.0345C74.7094 69.4452 73.6312 68.367 73.6312 67.0419V43.1383C73.6312 41.8131 74.7094 40.735 76.0346 40.735H115.406C116.732 40.735 117.81 41.8131 117.81 43.1383V67.0419C117.81 68.367 116.732 69.4452 115.406 69.4452Z" fill="black"/>
<path d="M95.7179 67.2067C93.4152 67.2067 91.2504 66.31 89.6222 64.6818C87.994 63.0536 87.0973 60.8887 87.0973 58.5861C87.0973 56.2834 87.994 54.1186 89.6222 52.4904C91.2504 50.8622 93.4153 49.9654 95.7179 49.9654C98.0204 49.9654 100.185 50.8623 101.814 52.4904C101.813 52.4903 101.814 52.4904 101.814 52.4904C103.442 54.1186 104.338 56.2834 104.338 58.5861C104.338 60.8887 103.442 63.0536 101.814 64.6818C100.185 66.31 98.0206 67.2067 95.7179 67.2067ZM95.7179 50.8853C93.661 50.8853 91.7272 51.6864 90.2727 53.1408C88.8182 54.5953 88.0172 56.5291 88.0172 58.5861C88.0172 60.643 88.8182 62.5768 90.2727 64.0313C91.7272 65.4857 93.661 66.2867 95.7179 66.2867C97.7748 66.2867 99.7086 65.4857 101.163 64.0313C102.618 62.5768 103.419 60.6429 103.419 58.5861C103.419 56.5291 102.618 54.5953 101.163 53.1408C99.7086 51.6864 97.7748 50.8853 95.7179 50.8853Z" fill="black"/>
<path d="M101.841 76.6218C101.587 76.6218 101.381 76.4159 101.381 76.1618V69.4698H90.3248V76.16C90.3248 76.414 90.1189 76.62 89.8648 76.62C89.6108 76.62 89.4049 76.414 89.4049 76.16V69.0097C89.4049 68.7557 89.6108 68.5498 89.8648 68.5498H101.841C102.095 68.5498 102.301 68.7557 102.301 69.0097V76.1618C102.301 76.4158 102.095 76.6218 101.841 76.6218ZM117.349 48.3924H74.2178C73.9638 48.3924 73.7578 48.1865 73.7578 47.9324C73.7578 47.6784 73.9638 47.4724 74.2178 47.4724H117.349C117.603 47.4724 117.809 47.6784 117.809 47.9324C117.809 48.1865 117.603 48.3924 117.349 48.3924Z" fill="black"/>
<path d="M95.7201 64.9288C94.8029 64.9288 94.0567 64.1826 94.0567 63.2654V58.5692C94.0567 57.652 94.8028 56.9058 95.7201 56.9058C96.6373 56.9058 97.3835 57.652 97.3835 58.5692V63.2654C97.3835 64.1826 96.6373 64.9288 95.7201 64.9288ZM95.7201 57.8257C95.3101 57.8257 94.9766 58.1592 94.9766 58.5691V63.2654C94.9766 63.6753 95.3101 64.0088 95.7201 64.0088C96.1301 64.0088 96.4636 63.6753 96.4636 63.2654V58.5691C96.4636 58.1592 96.1301 57.8257 95.7201 57.8257Z" fill="black"/>
<path d="M95.7201 56.2574C94.8029 56.2574 94.0567 55.5112 94.0567 54.594C94.0567 53.6768 94.8029 52.9306 95.7201 52.9306C96.6374 52.9306 97.3835 53.6768 97.3835 54.594C97.3835 55.5112 96.6374 56.2574 95.7201 56.2574ZM95.7201 53.8506C95.3102 53.8506 94.9766 54.1841 94.9766 54.594C94.9766 55.004 95.3102 55.3375 95.7201 55.3375C96.1301 55.3375 96.4636 55.004 96.4636 54.594C96.4636 54.1841 96.1301 53.8506 95.7201 53.8506ZM83.9979 53.4765H76.591C76.337 53.4765 76.131 53.2706 76.131 53.0165C76.131 52.7624 76.3369 52.5565 76.591 52.5565H83.9979C84.252 52.5565 84.4579 52.7624 84.4579 53.0165C84.4579 53.2706 84.252 53.4765 83.9979 53.4765ZM83.9979 63.6875H76.591C76.337 63.6875 76.131 63.4816 76.131 63.2275C76.131 62.9735 76.3369 62.7675 76.591 62.7675H83.9979C84.252 62.7675 84.4579 62.9735 84.4579 63.2275C84.4579 63.4816 84.252 63.6875 83.9979 63.6875ZM80.6755 58.6742H76.591C76.3369 58.6742 76.131 58.4683 76.131 58.2142C76.131 57.9602 76.3369 57.7542 76.591 57.7542H80.6755C80.9296 57.7542 81.1355 57.9602 81.1355 58.2142C81.1355 58.4682 80.9296 58.6742 80.6755 58.6742ZM114.863 63.6875H107.456C107.202 63.6875 106.996 63.4816 106.996 63.2275C106.996 62.9735 107.202 62.7675 107.456 62.7675H114.863C115.117 62.7675 115.323 62.9735 115.323 63.2275C115.323 63.4816 115.117 63.6875 114.863 63.6875ZM114.863 53.4765H107.456C107.202 53.4765 106.996 53.2706 106.996 53.0165C106.996 52.7624 107.202 52.5565 107.456 52.5565H114.863C115.117 52.5565 115.323 52.7624 115.323 53.0165C115.323 53.2706 115.117 53.4765 114.863 53.4765ZM114.863 58.4898H110.778C110.524 58.4898 110.318 58.2839 110.318 58.0298C110.318 57.7757 110.524 57.5698 110.778 57.5698H114.863C115.117 57.5698 115.323 57.7757 115.323 58.0298C115.323 58.2839 115.117 58.4898 114.863 58.4898ZM103.65 76.6466H83.9851C83.731 76.6466 83.5251 76.4407 83.5251 76.1867C83.5251 75.9326 83.731 75.7267 83.9851 75.7267H103.65C103.904 75.7267 104.11 75.9326 104.11 76.1867C104.11 76.4407 103.904 76.6466 103.65 76.6466ZM104.758 68.0861C104.64 68.0861 104.523 68.0412 104.433 67.9514L101.163 64.6818C100.983 64.5021 100.983 64.2109 101.163 64.0313C101.343 63.8516 101.634 63.8516 101.814 64.0313L105.083 67.3009C105.263 67.4805 105.263 67.7718 105.083 67.9514C104.993 68.0412 104.876 68.0861 104.758 68.0861Z" fill="black"/>
<path d="M113.853 79.8521C113.346 79.8521 112.869 79.6544 112.51 79.2956L103.817 70.603C103.458 70.2442 103.261 69.7671 103.261 69.2597C103.261 68.7523 103.458 68.2752 103.817 67.9165L105.048 66.6853C105.407 66.3265 105.884 66.1289 106.392 66.1289C106.899 66.1289 107.376 66.3265 107.735 66.6853L116.428 75.378C116.786 75.7368 116.984 76.2138 116.984 76.7212C116.984 77.2286 116.786 77.7057 116.428 78.0645L115.196 79.2956C114.838 79.6544 114.361 79.8521 113.853 79.8521ZM106.392 67.0489C106.13 67.0489 105.884 67.1508 105.699 67.3358L104.468 68.567C104.283 68.752 104.181 68.9981 104.181 69.2597C104.181 69.5214 104.283 69.7675 104.468 69.9525L113.16 78.6452C113.345 78.8302 113.591 78.9322 113.853 78.9322C114.115 78.9322 114.361 78.8302 114.546 78.6452L115.777 77.414C115.962 77.229 116.064 76.983 116.064 76.7213C116.064 76.4596 115.962 76.2136 115.777 76.0285L107.084 67.3358C106.899 67.1507 106.653 67.0489 106.392 67.0489Z" fill="black"/>
<path d="M117.35 48.3924H74.0915C73.8375 48.3924 73.6315 48.1865 73.6315 47.9324L73.6315 47.7492C73.6312 46.6961 73.6312 44.2468 73.6315 43.1936C73.6315 41.8685 74.7097 40.7904 76.0348 40.7904H115.407C116.732 40.7904 117.81 41.8686 117.81 43.1937V47.9324C117.81 48.1865 117.604 48.3924 117.35 48.3924ZM74.5513 47.4724H116.89V43.1937C116.89 42.3758 116.224 41.7103 115.407 41.7103H76.0348C75.2169 41.7103 74.5515 42.3758 74.5515 43.1937C74.5512 44.1631 74.5511 46.3149 74.5513 47.4724Z" fill="black"/>
<path d="M78.8259 46.4469C77.8015 46.4469 76.9681 45.6135 76.9681 44.5891C76.9681 43.5648 77.8015 42.7313 78.8259 42.7313C79.8502 42.7313 80.6836 43.5647 80.6836 44.5891C80.6836 45.6135 79.8502 46.4469 78.8259 46.4469ZM78.8259 43.6513C78.3087 43.6513 77.8881 44.072 77.8881 44.5891C77.8881 45.1063 78.3088 45.5269 78.8259 45.5269C79.3429 45.5269 79.7637 45.1063 79.7637 44.5891C79.7637 44.072 79.3429 43.6513 78.8259 43.6513Z" fill="black"/>
<path d="M83.7867 46.4469C82.7623 46.4469 81.9289 45.6135 81.9289 44.5891C81.9289 43.5648 82.7623 42.7313 83.7867 42.7313C84.811 42.7313 85.6444 43.5647 85.6444 44.5891C85.6445 45.6135 84.8111 46.4469 83.7867 46.4469ZM83.7867 43.6513C83.2696 43.6513 82.8488 44.072 82.8488 44.5891C82.8488 45.1063 83.2696 45.5269 83.7867 45.5269C84.3038 45.5269 84.7245 45.1063 84.7245 44.5891C84.7246 44.072 84.3038 43.6513 83.7867 43.6513Z" fill="black"/>
<path d="M88.7475 46.4469C87.7231 46.4469 86.8897 45.6135 86.8897 44.5891C86.8897 43.5648 87.7231 42.7313 88.7475 42.7313C89.7718 42.7313 90.6052 43.5647 90.6052 44.5891C90.6052 45.6135 89.7719 46.4469 88.7475 46.4469ZM88.7475 43.6513C88.2303 43.6513 87.8097 44.072 87.8097 44.5891C87.8097 45.1063 88.2304 45.5269 88.7475 45.5269C89.2645 45.5269 89.6853 45.1063 89.6853 44.5891C89.6853 44.072 89.2646 43.6513 88.7475 43.6513Z" fill="black"/>
<path d="M88.5677 107.505H64.2554C64.0014 107.505 63.7954 107.299 63.7954 107.045V99.2594C63.7954 99.0054 64.0014 98.7994 64.2554 98.7994H88.5677C88.8217 98.7994 89.0277 99.0053 89.0277 99.2594V107.045C89.0277 107.299 88.8218 107.505 88.5677 107.505ZM64.7154 106.585H88.1078V99.7195H64.7154V106.585Z" fill="black"/>
<path d="M88.5677 99.7195H64.2554C64.0014 99.7195 63.7954 99.5136 63.7954 99.2595V91.8656C63.7954 91.6115 64.0014 91.4056 64.2554 91.4056H88.5677C88.8217 91.4056 89.0277 91.6115 89.0277 91.8656V99.2595C89.0277 99.5135 88.8218 99.7195 88.5677 99.7195ZM64.7154 98.7995H88.1078V92.3255H64.7154V98.7995Z" fill="black"/>
<path d="M88.5677 92.3255H64.2554C64.0014 92.3255 63.7954 92.1196 63.7954 91.8655V84.1219C63.7954 83.8679 64.0014 83.6619 64.2554 83.6619H88.5677C88.8217 83.6619 89.0277 83.8678 89.0277 84.1219V91.8655C89.0277 92.1195 88.8218 92.3255 88.5677 92.3255ZM64.7154 91.4055H88.1078V84.5819H64.7154V91.4055Z" fill="black"/>
<path d="M80.5794 89.4444C80.3254 89.4444 80.1195 89.2384 80.1195 88.9844V86.9005C80.1195 86.6464 80.3254 86.4405 80.5794 86.4405C80.8335 86.4405 81.0394 86.6464 81.0394 86.9005V88.9844C81.0394 89.2384 80.8335 89.4444 80.5794 89.4444ZM76.4116 89.4444C76.1575 89.4444 75.9516 89.2384 75.9516 88.9844V86.9005C75.9516 86.6464 76.1575 86.4405 76.4116 86.4405C76.6656 86.4405 76.8716 86.6464 76.8716 86.9005V88.9844C76.8716 89.2384 76.6656 89.4444 76.4116 89.4444ZM72.2438 89.4444C71.9897 89.4444 71.7838 89.2384 71.7838 88.9844V86.9005C71.7838 86.6464 71.9897 86.4405 72.2438 86.4405C72.4979 86.4405 72.7038 86.6464 72.7038 86.9005V88.9844C72.7037 89.2384 72.4978 89.4444 72.2438 89.4444Z" fill="#2E1D6E"/>
<path d="M80.5794 89.4444C80.3254 89.4444 80.1195 89.2384 80.1195 88.9844V86.9005C80.1195 86.6464 80.3254 86.4405 80.5794 86.4405C80.8335 86.4405 81.0394 86.6464 81.0394 86.9005V88.9844C81.0394 89.2384 80.8335 89.4444 80.5794 89.4444ZM76.4116 89.4444C76.1575 89.4444 75.9516 89.2384 75.9516 88.9844V86.9005C75.9516 86.6464 76.1575 86.4405 76.4116 86.4405C76.6656 86.4405 76.8716 86.6464 76.8716 86.9005V88.9844C76.8716 89.2384 76.6656 89.4444 76.4116 89.4444ZM72.2438 89.4444C71.9897 89.4444 71.7838 89.2384 71.7838 88.9844V86.9005C71.7838 86.6464 71.9897 86.4405 72.2438 86.4405C72.4979 86.4405 72.7038 86.6464 72.7038 86.9005V88.9844C72.7037 89.2384 72.4978 89.4444 72.2438 89.4444ZM80.5794 97.0854C80.3254 97.0854 80.1195 96.8794 80.1195 96.6254V94.5415C80.1195 94.2874 80.3254 94.0815 80.5794 94.0815C80.8335 94.0815 81.0394 94.2874 81.0394 94.5415V96.6254C81.0394 96.8794 80.8335 97.0854 80.5794 97.0854ZM76.4116 97.0854C76.1575 97.0854 75.9516 96.8794 75.9516 96.6254V94.5415C75.9516 94.2874 76.1575 94.0815 76.4116 94.0815C76.6656 94.0815 76.8716 94.2874 76.8716 94.5415V96.6254C76.8716 96.8794 76.6656 97.0854 76.4116 97.0854ZM72.2438 97.0854C71.9897 97.0854 71.7838 96.8794 71.7838 96.6254V94.5415C71.7838 94.2874 71.9897 94.0815 72.2438 94.0815C72.4979 94.0815 72.7038 94.2874 72.7038 94.5415V96.6254C72.7037 96.8794 72.4978 97.0854 72.2438 97.0854ZM80.5794 104.726C80.3254 104.726 80.1195 104.52 80.1195 104.266V102.182C80.1195 101.928 80.3254 101.722 80.5794 101.722C80.8335 101.722 81.0394 101.928 81.0394 102.182V104.266C81.0394 104.52 80.8335 104.726 80.5794 104.726ZM76.4116 104.726C76.1575 104.726 75.9516 104.52 75.9516 104.266V102.182C75.9516 101.928 76.1575 101.722 76.4116 101.722C76.6656 101.722 76.8716 101.928 76.8716 102.182V104.266C76.8716 104.52 76.6656 104.726 76.4116 104.726ZM72.2438 104.726C71.9897 104.726 71.7838 104.52 71.7838 104.266V102.182C71.7838 101.928 71.9897 101.722 72.2438 101.722C72.4979 101.722 72.7038 101.928 72.7038 102.182V104.266C72.7037 104.52 72.4978 104.726 72.2438 104.726Z" fill="black"/>
<path d="M109.787 109.475C107.333 109.475 105.019 109.116 103.272 108.463C101.382 107.756 100.341 106.76 100.341 105.657V85.5096C100.341 84.4068 101.382 83.4106 103.272 82.7043C105.019 82.0513 107.333 81.6916 109.787 81.6916C112.241 81.6916 114.554 82.0512 116.302 82.7043C118.192 83.4105 119.232 84.4068 119.232 85.5096V105.657C119.232 106.76 118.191 107.756 116.302 108.463C114.554 109.116 112.241 109.475 109.787 109.475ZM109.787 82.6116C104.763 82.6116 101.261 84.1389 101.261 85.5096V105.657C101.261 107.028 104.763 108.555 109.787 108.555C114.811 108.555 118.312 107.028 118.312 105.657V85.5096C118.312 84.1389 114.811 82.6116 109.787 82.6116Z" fill="black"/>
<path d="M109.787 89.3275C107.333 89.3275 105.019 88.9679 103.272 88.3149C101.382 87.6086 100.341 86.6123 100.341 85.5096C100.341 84.4068 101.382 83.4105 103.272 82.7043C105.019 82.0513 107.333 81.6916 109.787 81.6916C112.241 81.6916 114.554 82.0512 116.302 82.7043C118.192 83.4105 119.232 84.4068 119.232 85.5096C119.232 86.6123 118.191 87.6086 116.302 88.3149C114.554 88.9679 112.241 89.3275 109.787 89.3275ZM109.787 82.6116C104.763 82.6116 101.261 84.1389 101.261 85.5096C101.261 86.8803 104.763 88.4076 109.787 88.4076C114.811 88.4076 118.312 86.8803 118.312 85.5096C118.312 84.1389 114.811 82.6116 109.787 82.6116Z" fill="black"/>
<path d="M109.787 96.0434C107.333 96.0434 105.019 95.6838 103.272 95.0307C101.382 94.3245 100.341 93.3282 100.341 92.2254C100.341 91.9714 100.547 91.7655 100.801 91.7655C101.055 91.7655 101.261 91.9714 101.261 92.2254C101.261 93.5961 104.763 95.1234 109.787 95.1234C114.811 95.1234 118.312 93.5961 118.312 92.2254C118.312 91.9714 118.518 91.7655 118.772 91.7655C119.027 91.7655 119.232 91.9714 119.232 92.2254C119.232 93.3282 118.192 94.3244 116.302 95.0307C114.554 95.6838 112.241 96.0434 109.787 96.0434Z" fill="black"/>
<path d="M109.787 102.759C107.333 102.759 105.019 102.4 103.272 101.747C101.382 101.04 100.341 100.044 100.341 98.9414C100.341 98.6873 100.547 98.4814 100.801 98.4814C101.055 98.4814 101.261 98.6873 101.261 98.9414C101.261 100.312 104.763 101.839 109.787 101.839C114.811 101.839 118.312 100.312 118.312 98.9414C118.312 98.6873 118.518 98.4814 118.772 98.4814C119.027 98.4814 119.232 98.6873 119.232 98.9414C119.232 100.044 118.192 101.04 116.302 101.747C114.554 102.4 112.241 102.759 109.787 102.759Z" fill="black"/>
<path d="M51.4388 108.782H31.8108C31.2357 108.782 30.7677 108.314 30.7677 107.739V83.428C30.7677 82.8528 31.2357 82.3848 31.8108 82.3848H46.8232C47.1322 82.3848 47.4234 82.5206 47.6221 82.7572C48.5867 83.906 50.9687 86.7496 52.252 88.341C52.4003 88.5249 52.482 88.757 52.482 88.9944V107.739C52.4819 108.314 52.014 108.782 51.4388 108.782ZM31.8108 83.3048C31.7429 83.3048 31.6877 83.3601 31.6877 83.428V107.739C31.6877 107.807 31.7429 107.862 31.8108 107.862H51.4389C51.5068 107.862 51.562 107.807 51.562 107.739V88.9945C51.562 88.966 51.553 88.9397 51.5359 88.9185C50.2577 87.3336 47.8803 84.4954 46.9175 83.3488C46.8941 83.3208 46.8597 83.3048 46.8232 83.3048H31.8108V83.3048Z" fill="black"/>
<path d="M52.0219 89.249H47.6809C47.1041 89.249 46.6349 88.781 46.6349 88.2057V82.8449C46.6349 82.6516 46.7558 82.479 46.9374 82.4128C47.119 82.3466 47.3227 82.4011 47.447 82.549C48.2694 83.5278 51.0556 86.8495 52.3807 88.5012C52.4914 88.6392 52.5132 88.8284 52.4366 88.9879C52.3601 89.1475 52.1989 89.249 52.0219 89.249ZM47.5548 84.109V88.2057C47.5548 88.2737 47.6114 88.3291 47.6809 88.3291H51.0571C50 87.0345 48.5337 85.2775 47.5548 84.109Z" fill="black"/>
<path d="M35.4652 87.87H34.1144C33.8603 87.87 33.6544 87.6641 33.6544 87.41C33.6544 87.156 33.8603 86.95 34.1144 86.95H35.4652C35.7193 86.95 35.9252 87.156 35.9252 87.41C35.9252 87.664 35.7192 87.87 35.4652 87.87Z" fill="black"/>
<path d="M40.5701 94.5681H35.6466C35.3925 94.5681 35.1866 94.3622 35.1866 94.1081C35.1866 93.854 35.3925 93.6481 35.6466 93.6481H40.5701C40.8241 93.6481 41.0301 93.854 41.0301 94.1081C41.0301 94.3622 40.8241 94.5681 40.5701 94.5681Z" fill="black"/>
<path d="M43.825 94.5681H42.6413C42.3873 94.5681 42.1814 94.3622 42.1814 94.1081C42.1814 93.854 42.3873 93.6481 42.6413 93.6481H43.825C44.0791 93.6481 44.285 93.854 44.285 94.1081C44.285 94.3622 44.0791 94.5681 43.825 94.5681Z" fill="black"/>
<path d="M49.3585 94.5681H45.9403C45.6863 94.5681 45.4803 94.3622 45.4803 94.1081C45.4803 93.854 45.6863 93.6481 45.9403 93.6481H49.3585C49.6125 93.6481 49.8185 93.854 49.8185 94.1081C49.8185 94.3622 49.6125 94.5681 49.3585 94.5681Z" fill="black"/>
<path d="M39.1735 96.3991H35.6466C35.3926 96.3991 35.1866 96.1932 35.1866 95.9391C35.1866 95.6851 35.3925 95.4792 35.6466 95.4792H39.1735C39.4275 95.4792 39.6334 95.6851 39.6334 95.9391C39.6334 96.1932 39.4275 96.3991 39.1735 96.3991Z" fill="black"/>
<path d="M40.5701 96.3991H38.9562C38.7021 96.3991 38.4962 96.1932 38.4962 95.9391C38.4962 95.6851 38.7021 95.4792 38.9562 95.4792H40.5701C40.8241 95.4792 41.0301 95.6851 41.0301 95.9391C41.0301 96.1932 40.8241 96.3991 40.5701 96.3991Z" fill="black"/>
<path d="M45.2402 96.3991H42.6569C42.4028 96.3991 42.1969 96.1932 42.1969 95.9391C42.1969 95.6851 42.4028 95.4792 42.6569 95.4792H45.2402C45.4943 95.4792 45.7002 95.6851 45.7002 95.9391C45.7002 96.1932 45.4943 96.3991 45.2402 96.3991Z" fill="black"/>
<path d="M48.8908 96.3991H47.368C47.1139 96.3991 46.908 96.1932 46.908 95.9391C46.908 95.6851 47.1139 95.4792 47.368 95.4792H48.8908C49.1449 95.4792 49.3508 95.6851 49.3508 95.9391C49.3508 96.1932 49.1449 96.3991 48.8908 96.3991Z" fill="black"/>
<path d="M35.6466 97.7524H33.8911C33.6371 97.7524 33.4311 97.5465 33.4311 97.2925C33.4311 97.0384 33.637 96.8325 33.8911 96.8325H35.6466C35.9006 96.8325 36.1066 97.0384 36.1066 97.2925C36.1066 97.5465 35.9006 97.7524 35.6466 97.7524Z" fill="black"/>
<path d="M40.0477 99.1854H37.7044C37.4504 99.1854 37.2444 98.9795 37.2444 98.7254C37.2444 98.4714 37.4504 98.2654 37.7044 98.2654H40.0477C40.3017 98.2654 40.5077 98.4713 40.5077 98.7254C40.5077 98.9795 40.3017 99.1854 40.0477 99.1854Z" fill="black"/>
<path d="M43.4578 99.1854H42.2339C41.9798 99.1854 41.7739 98.9795 41.7739 98.7254C41.7739 98.4714 41.9798 98.2654 42.2339 98.2654H43.4578C43.7119 98.2654 43.9178 98.4713 43.9178 98.7254C43.9178 98.9795 43.7118 99.1854 43.4578 99.1854Z" fill="black"/>
<path d="M48.7543 99.1854H45.9859C45.7319 99.1854 45.526 98.9795 45.526 98.7254C45.526 98.4714 45.7319 98.2654 45.9859 98.2654H48.7543C49.0084 98.2654 49.2143 98.4713 49.2143 98.7254C49.2143 98.9795 49.0084 99.1854 48.7543 99.1854Z" fill="black"/>
<path d="M35.6466 93.1551H33.8911C33.6371 93.1551 33.4311 92.9491 33.4311 92.6951C33.4311 92.4411 33.637 92.2351 33.8911 92.2351H35.6466C35.9006 92.2351 36.1066 92.441 36.1066 92.6951C36.1066 92.9491 35.9006 93.1551 35.6466 93.1551Z" fill="black"/>
<path d="M41.0323 100.937H37.41C37.156 100.937 36.95 100.731 36.95 100.477C36.95 100.223 37.156 100.017 37.41 100.017H41.0323C41.2863 100.017 41.4922 100.223 41.4922 100.477C41.4922 100.731 41.2863 100.937 41.0323 100.937Z" fill="black"/>
<path d="M45.2927 100.937H42.996C42.742 100.937 42.536 100.731 42.536 100.477C42.536 100.223 42.7419 100.017 42.996 100.017H45.2927C45.5467 100.017 45.7527 100.223 45.7527 100.477C45.7527 100.731 45.5467 100.937 45.2927 100.937Z" fill="black"/>
<path d="M62.5873 96.7655H53.6901C53.436 96.7655 53.2301 96.5596 53.2301 96.3056C53.2301 96.0515 53.436 95.8456 53.6901 95.8456H62.5873C62.8414 95.8456 63.0473 96.0515 63.0473 96.3056C63.0473 96.5596 62.8414 96.7655 62.5873 96.7655Z" fill="black"/>
<path d="M59.976 99.3769C59.8583 99.3769 59.7406 99.3319 59.6507 99.2421C59.4711 99.0625 59.4711 98.7713 59.6507 98.5916L61.9369 96.3055L59.6507 94.0195C59.4711 93.8398 59.4711 93.5486 59.6507 93.369C59.8304 93.1893 60.1216 93.1893 60.3012 93.369L62.9126 95.9803C63.0923 96.16 63.0923 96.4512 62.9126 96.6309L60.3012 99.2422C60.2114 99.3319 60.0937 99.3769 59.976 99.3769Z" fill="black"/>
<path d="M99.1331 96.7655H90.2359C89.9819 96.7655 89.7759 96.5596 89.7759 96.3056C89.7759 96.0515 89.9819 95.8456 90.2359 95.8456H99.1331C99.3872 95.8456 99.5931 96.0515 99.5931 96.3056C99.5931 96.5596 99.3872 96.7655 99.1331 96.7655Z" fill="black"/>
<path d="M96.5218 99.3769C96.4041 99.3769 96.2864 99.332 96.1965 99.2422C96.0169 99.0625 96.0169 98.7713 96.1965 98.5916L98.4826 96.3056L96.1965 94.0195C96.0169 93.8399 96.0169 93.5486 96.1965 93.369C96.3762 93.1894 96.6674 93.1894 96.8471 93.369L99.4584 95.9804C99.638 96.16 99.638 96.4512 99.4584 96.6309L96.8471 99.2422C96.7572 99.332 96.6395 99.3769 96.5218 99.3769Z" fill="black"/>
<path d="M61.4703 48.8554H31.2277C30.9736 48.8554 30.7677 48.6495 30.7677 48.3954V45.1663C30.7677 43.1416 32.4149 41.4944 34.4396 41.4944H58.2584C60.2831 41.4944 61.9303 43.1416 61.9303 45.1663V48.3954C61.9302 48.6494 61.7243 48.8554 61.4703 48.8554ZM31.6876 47.9354H61.0102V45.1663C61.0102 43.6488 59.7758 42.4143 58.2583 42.4143H34.4396C32.9221 42.4143 31.6877 43.6488 31.6877 45.1663V47.9354H31.6876Z" fill="black"/>
<path d="M58.2583 72.6567H34.4396C32.4149 72.6567 30.7677 71.0096 30.7677 68.985V48.3954C30.7677 48.1414 30.9736 47.9355 31.2276 47.9355H61.4702C61.7243 47.9355 61.9302 48.1414 61.9302 48.3954V68.985C61.9302 71.0096 60.283 72.6567 58.2583 72.6567ZM31.6876 48.8554V68.985C31.6876 70.5024 32.9221 71.7368 34.4396 71.7368H58.2583C59.7757 71.7368 61.0102 70.5024 61.0102 68.985V48.8554H31.6876ZM37.1975 45.8193H34.3046C34.0506 45.8193 33.8446 45.6134 33.8446 45.3593C33.8446 45.1053 34.0505 44.8994 34.3046 44.8994H37.1975C37.4515 44.8994 37.6574 45.1053 37.6574 45.3593C37.6574 45.6134 37.4515 45.8193 37.1975 45.8193Z" fill="black"/>
<path d="M42.426 61.7053C42.2518 61.7053 42.0881 61.6374 41.9648 61.5143L39.2434 58.7928L38.4089 60.4616C38.2911 60.6971 38.0456 60.8384 37.7825 60.8212C37.5197 60.8042 37.2942 60.6325 37.2078 60.3837L34.4623 52.476C34.4045 52.3095 34.4469 52.1246 34.5716 51.9999C34.6962 51.8753 34.8812 51.8328 35.0477 51.8907L42.9554 54.6362C43.2041 54.7226 43.3758 54.9482 43.3929 55.2109C43.4099 55.4736 43.2687 55.7195 43.0333 55.8372L41.3644 56.6717L44.0859 59.3933C44.2091 59.5164 44.277 59.6802 44.277 59.8545C44.277 60.0288 44.2091 60.1926 44.0859 60.3158L43.4866 60.9151L42.8872 61.5144C42.7641 61.6374 42.6003 61.7053 42.426 61.7053ZM39.1696 57.6891C39.3414 57.6891 39.5088 57.7572 39.632 57.8804L42.426 60.6744L43.2462 59.8543L40.4521 57.0603C40.3041 56.9122 40.2358 56.7005 40.2693 56.4939C40.3028 56.2873 40.4346 56.108 40.6218 56.0144L42.0555 55.2975L35.6428 53.0709L37.8693 59.4837L38.5862 58.05C38.6798 57.8628 38.8591 57.731 39.0658 57.6975C39.1003 57.6919 39.135 57.6891 39.1696 57.6891Z" fill="black"/>
<path d="M58.5668 79.5075C55.9764 79.5075 53.4571 78.7509 51.2813 77.3193C51.069 77.1797 51.0102 76.8944 51.1498 76.6823C51.2895 76.47 51.5747 76.4112 51.7868 76.5508C53.8121 77.8833 56.1566 78.5876 58.5668 78.5876C65.3778 78.5876 70.919 73.0464 70.919 66.2354C70.919 60.833 67.4692 56.0995 62.3347 54.4568C62.0927 54.3794 61.9594 54.1205 62.0368 53.8785C62.1142 53.6365 62.373 53.5032 62.6151 53.5806C63.9378 54.0038 65.1822 54.6321 66.314 55.4482C67.4309 56.2534 68.4131 57.2231 69.2333 58.3304C70.9379 60.6316 71.839 63.365 71.839 66.2354C71.839 69.7805 70.4584 73.1134 67.9517 75.6202C65.4449 78.127 62.1119 79.5075 58.5668 79.5075Z" fill="black"/>
<path d="M63.4761 56.8706C63.2962 56.8706 63.1254 56.7644 63.0516 56.5881L62.0507 54.1963C62.0035 54.0838 62.0031 53.9571 62.0494 53.8443C62.0957 53.7314 62.1849 53.6415 62.2974 53.5944L64.698 52.5903C64.9323 52.4923 65.2018 52.6027 65.2998 52.8371C65.3979 53.0715 65.2874 53.3409 65.053 53.439L63.0769 54.2656L63.9002 56.2329C63.9983 56.4672 63.8878 56.7367 63.6535 56.8348C63.5954 56.8591 63.5352 56.8706 63.4761 56.8706ZM50.1652 76.357C50.058 76.357 49.9503 76.3198 49.8632 76.2438C46.9599 73.713 45.2947 70.0651 45.2947 66.2354C45.2947 62.6903 46.6752 59.3574 49.182 56.8506C51.6887 54.3438 55.0217 52.9633 58.5668 52.9633C59.3562 52.9633 60.0708 53.0181 60.7514 53.1308C61.002 53.1723 61.1715 53.4092 61.13 53.6598C61.0884 53.9104 60.8517 54.08 60.601 54.0384C59.9708 53.934 59.3053 53.8832 58.5668 53.8832C51.7557 53.8832 46.2146 59.4244 46.2146 66.2354C46.2146 69.7992 47.7647 73.1943 50.4676 75.5503C50.6591 75.7173 50.679 76.0078 50.5121 76.1993C50.4212 76.3036 50.2935 76.357 50.1652 76.357Z" fill="black"/>
<path d="M50.1654 76.357H47.435C47.1809 76.357 46.975 76.1511 46.975 75.897C46.975 75.643 47.1809 75.4371 47.435 75.4371H49.7054V73.1666C49.7054 72.9126 49.9113 72.7066 50.1654 72.7066C50.4195 72.7066 50.6254 72.9125 50.6254 73.1666V75.897C50.6254 76.1511 50.4195 76.357 50.1654 76.357Z" fill="black"/>
<path d="M55.9607 75.0654C55.8031 75.0654 55.6435 75.0408 55.4874 74.9893C55.1001 74.8615 54.7168 74.7075 54.3482 74.5314C53.7121 74.2276 53.3812 73.4984 53.5784 72.8352C53.7263 72.3374 53.5828 71.8009 53.2038 71.435C52.8173 71.062 52.2476 70.9215 51.717 71.0686C51.0355 71.2573 50.3107 70.9451 49.9935 70.3262C49.8105 69.9692 49.6503 69.5978 49.5174 69.2225C49.2849 68.5657 49.58 67.8188 50.2039 67.4851C50.679 67.231 50.9742 66.7521 50.9742 66.2354C50.9742 65.7186 50.679 65.2398 50.2039 64.9857C49.58 64.652 49.2849 63.9051 49.5174 63.2483C49.6503 62.8731 49.8104 62.5017 49.9935 62.1447C50.3108 61.5257 51.0357 61.2136 51.717 61.4023C52.2476 61.5494 52.8174 61.4089 53.2038 61.0358C53.5829 60.6699 53.7264 60.1334 53.5784 59.6356C53.3813 58.9724 53.7122 58.2432 54.3482 57.9394C54.7169 57.7633 55.1001 57.6093 55.4874 57.4815C56.1616 57.2592 56.9034 57.5373 57.251 58.1428C57.5155 58.6038 58.0197 58.8901 58.5669 58.8901C59.114 58.8901 59.6182 58.6038 59.8827 58.1428C60.2303 57.5372 60.972 57.2592 61.6463 57.4815C62.0337 57.6093 62.417 57.7634 62.7855 57.9394C63.4215 58.2432 63.7525 58.9724 63.5553 59.6356C63.4074 60.1334 63.5509 60.6699 63.9299 61.0358C64.3164 61.4089 64.8861 61.5492 65.4167 61.4023C66.0981 61.2135 66.823 61.5257 67.1402 62.1447C67.3233 62.5017 67.4834 62.8731 67.6163 63.2483C67.8488 63.9051 67.5537 64.652 66.9299 64.9856C66.4547 65.2398 66.1595 65.7186 66.1595 66.2354C66.1595 66.7521 66.4547 67.231 66.9298 67.4851C67.5537 67.8187 67.8488 68.5657 67.6163 69.2224C67.4834 69.5978 67.3232 69.9691 67.1402 70.3261C66.823 70.945 66.0981 71.2573 65.4167 71.0685C64.886 70.9215 64.3164 71.0619 63.9299 71.435C63.5508 71.8009 63.4073 72.3374 63.5553 72.8352C63.7524 73.4983 63.4215 74.2275 62.7855 74.5314C62.4171 74.7074 62.0337 74.8614 61.6463 74.9892C60.9721 75.2117 60.2303 74.9335 59.8827 74.3279C59.6182 73.867 59.114 73.5807 58.5668 73.5807C58.0197 73.5807 57.5155 73.867 57.251 74.328C56.9838 74.7934 56.4838 75.0654 55.9607 75.0654ZM58.5668 72.6607C59.4425 72.6607 60.2525 73.1241 60.6806 73.87C60.8097 74.0949 61.1009 74.2004 61.3581 74.1156C61.7087 73.9999 62.0556 73.8605 62.389 73.7012C62.6207 73.5906 62.743 73.3309 62.6736 73.0973C62.4273 72.269 62.6639 71.3784 63.291 70.7731C63.9107 70.1749 64.8192 69.9483 65.6624 70.1819C65.921 70.2536 66.2044 70.1351 66.3216 69.9064C66.486 69.5857 66.6299 69.2523 66.7492 68.9154C66.8313 68.6835 66.7224 68.4174 66.4961 68.2963C65.7211 67.8818 65.2396 67.0921 65.2396 66.2353C65.2396 65.3785 65.721 64.5888 66.4961 64.1743C66.7224 64.0533 66.8312 63.7872 66.7491 63.5553C66.6299 63.2184 66.486 62.885 66.3216 62.5642C66.2044 62.3356 65.921 62.2173 65.6624 62.2888C64.8192 62.5224 63.9107 62.2958 63.291 61.6976C62.6639 61.0922 62.4272 60.2016 62.6735 59.3734C62.7429 59.1397 62.6207 58.8801 62.3889 58.7694C62.0554 58.6101 61.7085 58.4707 61.3581 58.3551C61.1008 58.2702 60.8096 58.3758 60.6806 58.6007C60.2525 59.3466 59.4425 59.8099 58.5668 59.8099C57.6911 59.8099 56.8811 59.3465 56.453 58.6007C56.324 58.3758 56.0328 58.2702 55.7755 58.3551C55.4251 58.4707 55.0782 58.6101 54.7446 58.7694C54.513 58.88 54.3906 59.1397 54.4601 59.3733C54.7063 60.2016 54.4697 61.0922 53.8426 61.6975C53.2229 62.2957 52.3142 62.5222 51.4712 62.2887C51.2126 62.2171 50.9292 62.3355 50.8119 62.5641C50.6475 62.8849 50.5037 63.2184 50.3844 63.5552C50.3024 63.7871 50.4112 64.0532 50.6375 64.1743C51.4125 64.5888 51.894 65.3784 51.894 66.2352C51.894 67.092 51.4125 67.8817 50.6375 68.2962C50.4111 68.4172 50.3024 68.6834 50.3844 68.9153C50.5037 69.2522 50.6476 69.5857 50.812 69.9064C50.9292 70.135 51.2126 70.2534 51.4712 70.1818C52.3143 69.9483 53.2229 70.1748 53.8426 70.773C54.4697 71.3783 54.7063 72.2689 54.4601 73.0972C54.3906 73.3308 54.5129 73.5904 54.7446 73.7011C55.0782 73.8604 55.425 73.9998 55.7755 74.1155C56.0327 74.2003 56.3239 74.0947 56.453 73.8699C56.8812 73.1241 57.6911 72.6607 58.5668 72.6607Z" fill="black"/>
<path d="M58.5668 70.6272C56.1452 70.6272 54.175 68.657 54.175 66.2354C54.175 63.8137 56.1452 61.8436 58.5668 61.8436C60.9885 61.8436 62.9586 63.8137 62.9586 66.2354C62.9586 68.657 60.9885 70.6272 58.5668 70.6272ZM58.5668 62.7635C56.6524 62.7635 55.095 64.321 55.095 66.2354C55.095 68.1498 56.6524 69.7072 58.5668 69.7072C60.4812 69.7072 62.0387 68.1498 62.0387 66.2354C62.0387 64.321 60.4812 62.7635 58.5668 62.7635Z" fill="black"/>
</svg>
